<svg width="36" height="36" viewBox="0 0 36 36" fill="none" xmlns="http://www.w3.org/2000/svg">
<path d="M25.3618 17.6823C23.3837 15.711 20.7576 14.6333 17.9632 14.6404C12.2327 14.6602 7.57056 19.3845 7.57056 25.1716V26.6455C7.57056 28.7302 8.63917 30.6124 10.4292 31.6807C12.2191 32.749 14.3831 32.7961 16.2178 31.8065C17.3337 31.2046 18.6662 31.2046 19.7821 31.8065C20.661 32.2806 21.6152 32.5167 22.568 32.5166C23.6039 32.5166 24.6383 32.2372 25.5708 31.6807C27.3608 30.6124 28.4294 28.7301 28.4294 26.6455V25.0698C28.4293 22.2772 27.3399 19.6536 25.3618 17.6823Z" fill="#1C1B1B"/>
<path d="M6.87305 12.0261L6.30858 11.616C4.53572 10.3279 2.04552 10.7224 0.757607 12.4952H0.757537C-0.53045 14.268 -0.136066 16.7581 1.6368 18.0462L2.20127 18.4563C2.9051 18.9677 3.72199 19.2139 4.53192 19.2139C5.7619 19.2139 6.9757 18.646 7.75238 17.5771C9.04022 15.8043 8.64584 13.3141 6.87305 12.0261Z" fill="#1C1B1B"/>
<path d="M35.2425 12.5899C33.9545 10.8171 31.4642 10.4226 29.6915 11.7107L29.127 12.1209C27.3542 13.4088 26.9597 15.899 28.2478 17.6719C29.0246 18.7409 30.2381 19.3086 31.4682 19.3086C32.278 19.3086 33.0951 19.0624 33.7989 18.5511L34.3633 18.141C36.1361 16.8529 36.5305 14.3627 35.2425 12.5899Z" fill="#1C1B1B"/>
<path d="M16.6373 7.99724L16.0635 6.2312C15.7355 5.22165 15.034 4.40026 14.088 3.91834C13.1423 3.43634 12.0653 3.35162 11.0558 3.6797C10.0463 4.00771 9.22479 4.70921 8.7428 5.65506C8.26081 6.60091 8.17608 7.67781 8.50416 8.68736L9.07798 10.4534C9.62312 12.131 11.1849 13.1998 12.8604 13.1998C13.2664 13.1998 13.6793 13.137 14.0857 13.005H14.0858C15.0953 12.677 15.9167 11.9754 16.3987 11.0295C16.8806 10.0837 16.9653 9.00679 16.6373 7.99724Z" fill="#1C1B1B"/>
<path d="M24.9442 3.71562C22.86 3.03844 20.6137 4.18313 19.9366 6.26719L19.3628 8.03316C19.0347 9.04271 19.1195 10.1196 19.6013 11.0655C20.0832 12.0113 20.9047 12.7129 21.9142 13.0409C22.3208 13.1729 22.7334 13.2357 23.1395 13.2357C24.8149 13.2357 26.3769 12.1669 26.922 10.4893L27.4958 8.72328C28.1729 6.63922 27.0282 4.3928 24.9442 3.71562Z" fill="#1C1B1B"/>
</svg>
