<svg width="29" height="30" viewBox="0 0 29 30" fill="none" xmlns="http://www.w3.org/2000/svg">
<g clip-path="url(#clip0)">
<path d="M14.7201 2.07337H14.0821C13.7412 2.07337 13.4648 1.79697 13.4648 1.45612V1.43537C13.4648 0.643697 12.823 0.00195312 12.0314 0.00195312H11.9982C11.2066 0.00195312 10.5648 0.643697 10.5648 1.43537V1.45612C10.5648 1.79702 10.2884 2.07342 9.94759 2.07342H9.30958C8.63003 2.07342 8.07917 2.62427 8.07917 3.30383V3.32871C8.07917 4.00827 8.63003 4.55912 9.30958 4.55912H14.7202C15.3997 4.55912 15.9506 4.00822 15.9506 3.32871V3.30378C15.9505 2.62427 15.3997 2.07337 14.7201 2.07337ZM12.0148 2.07337C11.6716 2.07337 11.3934 1.79512 11.3934 1.45195C11.3934 1.10874 11.6716 0.830491 12.0148 0.830491C12.358 0.830491 12.6362 1.10874 12.6362 1.45195C12.6362 1.79517 12.358 2.07337 12.0148 2.07337ZM14.7814 26.102H4.35048C3.43528 26.102 2.69336 25.36 2.69336 24.4448V4.55908C2.69336 3.64387 3.43528 2.90195 3.93619 2.90195H7.29366C7.26565 3.03956 7.25054 3.18219 7.25054 3.3288C7.25054 4.46407 8.17418 5.38771 9.30963 5.38771H14.72C15.8555 5.38771 16.7791 4.46407 16.7791 3.30374C16.7791 3.16618 16.7643 3.03207 16.7386 2.90195H19.2648C20.5944 2.90195 21.3363 3.64387 21.3363 4.55908V17.0086C21.1986 17 21.0618 16.9877 20.922 16.9877C20.3489 16.9877 19.7956 17.0684 19.2648 17.2058V7.45908H4.76478V24.0305H14.3143C14.3597 24.7587 14.5188 25.4557 14.7814 26.102ZM20.922 18.2305C17.9475 18.2305 15.5363 20.6418 15.5363 23.6162C15.5363 26.5906 17.9475 29.002 20.922 29.002C23.8965 29.002 26.3076 26.5906 26.3076 23.6162C26.3076 20.6418 23.8964 18.2305 20.922 18.2305ZM24.4412 22.5097L21.1269 26.2383C20.9636 26.422 20.7362 26.5162 20.5072 26.5162C20.3254 26.5162 20.1425 26.4567 19.99 26.3346L17.9185 24.6774C17.5613 24.3918 17.5032 23.8703 17.7893 23.513C18.0749 23.1554 18.5966 23.0975 18.9538 23.3836L20.4109 24.5492L23.2026 21.4085C23.5063 21.0666 24.0302 21.0355 24.3723 21.3397C24.7145 21.644 24.7452 22.1675 24.4412 22.5097ZM17.1934 14.502H10.5648C10.336 14.502 10.1505 14.3164 10.1505 14.0877V13.6734C10.1505 13.4445 10.336 13.2591 10.5648 13.2591H17.1934C17.4222 13.2591 17.6077 13.4446 17.6077 13.6734V14.0877C17.6076 14.3164 17.4222 14.502 17.1934 14.502ZM17.1934 10.7734H10.5648C10.336 10.7734 10.1505 10.5879 10.1505 10.3591V9.94478C10.1505 9.71596 10.336 9.53049 10.5648 9.53049H17.1934C17.4222 9.53049 17.6077 9.71601 17.6077 9.94478V10.3591C17.6076 10.5879 17.4222 10.7734 17.1934 10.7734ZM15.1219 17.8162H10.5648C10.336 17.8162 10.1505 17.6307 10.1505 17.402V16.9877C10.1505 16.7588 10.336 16.5734 10.5648 16.5734H15.1219C15.3508 16.5734 15.5363 16.7588 15.5363 16.9877V17.402C15.5362 17.6307 15.3508 17.8162 15.1219 17.8162ZM14.2934 21.5448H10.5648C10.336 21.5448 10.1505 21.3593 10.1505 21.1305V20.7162C10.1505 20.4874 10.336 20.302 10.5648 20.302H14.2934C14.5222 20.302 14.7077 20.4874 14.7077 20.7162V21.1305C14.7077 21.3593 14.5222 21.5448 14.2934 21.5448ZM9.3573 9.24125L7.83153 10.9577C7.75638 11.0423 7.6517 11.0857 7.54627 11.0857C7.46254 11.0857 7.37838 11.0583 7.30816 11.0021L6.35452 10.2392C6.19004 10.1077 6.16337 9.86769 6.295 9.70321C6.42645 9.53855 6.6667 9.51192 6.83112 9.6436L7.50187 10.1801L8.78711 8.73427C8.9269 8.5769 9.16809 8.56254 9.32555 8.70262C9.48316 8.84269 9.49728 9.08369 9.3573 9.24125ZM9.3573 12.9272L7.83153 14.6436C7.75638 14.7282 7.6517 14.7716 7.54627 14.7716C7.46254 14.7716 7.37838 14.7442 7.30816 14.6879L6.35452 13.9251C6.19004 13.7936 6.16337 13.5535 6.295 13.3891C6.42645 13.2244 6.6667 13.1978 6.83112 13.3294L7.50187 13.866L8.78711 12.4202C8.9269 12.2628 9.16809 12.2484 9.32555 12.3886C9.48316 12.5286 9.49728 12.7696 9.3573 12.9272ZM9.3573 16.4522L7.83153 18.1687C7.75638 18.2532 7.6517 18.2966 7.54627 18.2966C7.46254 18.2966 7.37838 18.2693 7.30816 18.213L6.35452 17.45C6.19004 17.3186 6.16337 17.0785 6.295 16.914C6.42645 16.7494 6.6667 16.7227 6.83112 16.8544L7.50187 17.391L8.78711 15.9451C8.9269 15.7877 9.16809 15.7734 9.32555 15.9134C9.48316 16.0536 9.49728 16.2946 9.3573 16.4522ZM9.3573 20.002L7.83153 21.7185C7.75638 21.8031 7.6517 21.8464 7.54627 21.8464C7.46254 21.8464 7.37838 21.8191 7.30816 21.7628L6.35452 20.9999C6.19004 20.8684 6.16337 20.6283 6.295 20.4639C6.42645 20.2992 6.6667 20.2726 6.83112 20.4043L7.50187 20.9408L8.78711 19.4949C8.9269 19.3376 9.16809 19.3232 9.32555 19.4633C9.48316 19.6034 9.49728 19.8445 9.3573 20.002Z" fill="#1C1B1B"/>
</g>
<defs>
<clipPath id="clip0">
<rect width="29" height="29" fill="white" transform="translate(0 0.00195312)"/>
</clipPath>
</defs>
</svg>
