<svg width="30" height="31" viewBox="0 0 30 31" fill="none" xmlns="http://www.w3.org/2000/svg">
<g clip-path="url(#clip0)">
<path d="M24.8779 3.2516H23.9742V2.26551C23.9742 1.01685 22.9889 0.00195312 21.7765 0.00195312C20.5632 0.00195312 19.5787 1.01685 19.5787 2.26551V3.25078H17.3234V2.26551C17.3234 1.01685 16.3381 0.00195312 15.1257 0.00195312C13.9133 0.00195312 12.928 1.01685 12.928 2.26551V3.25078H10.6727V2.26551C10.6727 1.01685 9.68739 0.00195312 8.47495 0.00195312C7.2625 0.00195312 6.27724 1.01685 6.27724 2.26551V3.25078H5.12323C3.19468 3.25078 1.625 4.82046 1.625 6.74901V26.5037C1.625 28.4323 3.19468 30.002 5.12323 30.002H24.8779C26.8073 30.002 28.3762 28.4323 28.3762 26.5037V6.74901C28.3762 4.82128 26.8065 3.2516 24.8779 3.2516ZM20.8134 2.26551C20.8134 1.69839 21.2455 1.23662 21.7765 1.23662C22.3082 1.23662 22.7395 1.69839 22.7395 2.26551V6.29548C22.7395 6.8626 22.3082 7.32437 21.7765 7.32437C21.2455 7.32437 20.8134 6.8626 20.8134 6.29548V2.26551ZM14.1627 2.26551C14.1627 1.69839 14.5948 1.23662 15.1257 1.23662C15.6566 1.23662 16.0887 1.69839 16.0887 2.26551V6.29548C16.0887 6.8626 15.6566 7.32437 15.1257 7.32437C14.5948 7.32437 14.1627 6.8626 14.1627 6.29548V2.26551V2.26551ZM7.51108 2.26551C7.51108 1.69839 7.94322 1.23662 8.47412 1.23662C9.00503 1.23662 9.43717 1.69839 9.43717 2.26551V6.29548C9.43717 6.8626 9.00503 7.32437 8.47412 7.32437C7.94322 7.32437 7.51108 6.8626 7.51108 6.29548V2.26551ZM26.3184 26.5045C26.3184 27.2989 25.6723 27.945 24.8779 27.945H5.12323C4.32893 27.945 3.68278 27.2989 3.68278 26.5045V8.39606H26.3184V26.5045Z" fill="#1C1B1B"/>
<path d="M24.4666 12.0408H20.6836V15.4065H24.4666V12.0408Z" fill="#1C1B1B"/>
<path d="M24.4666 16.5334H20.6836V19.8967H24.4666V16.5334Z" fill="#1C1B1B"/>
<path d="M9.31736 21.0242H5.53516V24.3874H9.31736V21.0242Z" fill="#1C1B1B"/>
<path d="M14.367 21.0242H10.584V24.3874H14.367V21.0242Z" fill="#1C1B1B"/>
<path d="M19.417 21.0242H15.6348V24.3874H19.417V21.0242Z" fill="#1C1B1B"/>
<path d="M24.4666 21.0242H20.6836V24.3874H24.4666V21.0242Z" fill="#1C1B1B"/>
<path d="M8.31223 19.7195H10.5379V12.272H8.78223C8.76741 12.579 8.69498 12.8375 8.56246 13.0473C8.42993 13.2581 8.2612 13.4252 8.05377 13.5503C7.84717 13.6746 7.61505 13.7643 7.35824 13.817C7.10143 13.8705 6.83721 13.8943 6.56641 13.8869V15.4278H8.31058L8.31223 19.7195Z" fill="#1C1B1B"/>
<path d="M16.5357 14.2845C16.4674 14.3627 16.3752 14.4779 16.2567 14.6318C16.139 14.7858 15.9917 14.9948 15.813 15.2582C15.4492 15.7793 15.1636 16.3036 14.957 16.8312C14.7504 17.3596 14.5965 17.837 14.4969 18.2642C14.3965 18.6931 14.3364 19.0421 14.315 19.3121C14.2936 19.5837 14.2862 19.7187 14.2936 19.7187H16.6592C16.651 19.2767 16.6798 18.8091 16.7448 18.3169C16.8098 17.8247 16.9251 17.3316 17.0922 16.8345C17.2601 16.339 17.4889 15.8492 17.7828 15.3636C18.0741 14.8788 18.4495 14.4252 18.9063 14.0046V12.272H13.1602V14.0911H16.7234C16.665 14.1413 16.6032 14.2055 16.5357 14.2845Z" fill="#1C1B1B"/>
</g>
<defs>
<clipPath id="clip0">
<rect width="30" height="30" fill="white" transform="translate(0 0.00195312)"/>
</clipPath>
</defs>
</svg>
