<svg width="12" height="10" viewBox="0 0 12 10" fill="none" xmlns="http://www.w3.org/2000/svg">
<path d="M10.8349 0H1.15213C0.970844 0 0.802457 0.0417175 0.647217 0.124881L5.99364 4.77123L11.3398 0.124881C11.1846 0.0417175 11.0291 0 10.8349 0Z" fill="#1C1B1B"/>
<path d="M6.35599 6.04721C6.25233 6.14419 6.12288 6.18591 5.99343 6.18591C5.86398 6.18591 5.73453 6.14419 5.63086 6.04721L0 1.15137C0 1.179 0 1.19308 0 1.23453V8.76589C0 9.44556 0.517804 10.0004 1.15216 10.0004H10.8481C11.4825 10.0004 12.0003 9.44556 12.0003 8.76589V1.23453C12.0003 1.2069 12.0003 1.19281 12.0003 1.15137L6.35599 6.04721Z" fill="#1C1B1B"/>
</svg>
