<svg width="13" height="13" viewBox="0 0 13 13" fill="none" xmlns="http://www.w3.org/2000/svg">
<path d="M12.6608 9.53549L10.8431 7.72229C10.1939 7.07472 9.09029 7.33375 8.83062 8.17559C8.63586 8.75841 7.98667 9.08219 7.4024 8.95268C6.10403 8.62889 4.35122 6.94521 4.02662 5.58531C3.83187 5.00249 4.22138 4.35492 4.80565 4.16065C5.64959 3.90162 5.90927 2.80075 5.26008 2.15318L3.44235 0.339975C2.923 -0.113325 2.14398 -0.113325 1.68954 0.339975L0.456086 1.57036C-0.777372 2.8655 0.585924 6.29763 3.63711 9.34122C6.6883 12.3848 10.129 13.8095 11.4274 12.5143L12.6608 11.2839C13.1153 10.7659 13.1153 9.98879 12.6608 9.53549Z" fill="#1C1B1B"/>
</svg>
