<?xml version="1.0" encoding="utf-8"?>
<!-- Generator: Adobe Illustrator 24.0.2, SVG Export Plug-In . SVG Version: 6.00 Build 0)  -->
<svg version="1.1" id="Слой_1" xmlns="http://www.w3.org/2000/svg" xmlns:xlink="http://www.w3.org/1999/xlink" x="0px" y="0px"
	 viewBox="0 0 37.2 37" style="enable-background:new 0 0 37.2 37;" xml:space="preserve">
<style type="text/css">
	.st0{fill:#1C1B1B;}
</style>
<g>
	<g>
		<path class="st0" d="M34,11.7c1.9-1.1,3.1-3,3.2-5.2l0.1-0.8l-0.7-0.3c-1.9-1-4.2-0.9-6.1,0.2L4.9,20.3l-4.3-1.1L0,21.4l3,0.8
			c-0.4,1-0.4,2.1,0.2,3.1c0.6,1,1.6,1.6,2.6,1.7l-0.8,3l2.3,0.6l1.1-4.3L34,11.7z"/>
		<path class="st0" d="M13.2,12.8l8.5-4.9L7,0L3.1,2.3l10,10.3L13.2,12.8z"/>
		<path class="st0" d="M27.5,18.1L19.1,23l0.1,0.2l4,13.8l3.9-2.3L27.5,18.1z"/>
	</g>
</g>
</svg>
