<svg width="493" height="233" viewBox="0 0 493 233" fill="none" xmlns="http://www.w3.org/2000/svg">
<g filter="url(#filter0_d)">
<path d="M169.614 126.739C169.614 126.395 169.27 126.052 168.927 126.052C160.682 127.083 152.438 128.113 144.537 128.8C144.537 109.22 143.506 76.9289 143.506 57.6919C143.506 46.6993 142.819 36.0502 141.445 25.7447C141.445 25.4012 141.445 25.4012 141.102 25.0576C130.109 21.2789 121.521 18.8743 115.681 18.1873L109.842 17.5002C107.78 17.5002 106.75 17.5002 106.406 17.8438L103.315 21.966C102.628 23.3401 96.4443 33.9891 84.4212 53.5696C74.8027 69.3715 67.2453 81.0511 62.0925 88.265C57.9703 93.7612 47.6648 108.533 40.4509 117.808C37.0157 122.273 33.5805 126.739 29.8018 130.518C28.0842 132.922 22.9315 137.388 21.2139 139.106C20.1833 140.136 20.1833 142.197 21.2139 145.976C22.9315 153.533 26.0231 160.747 31.1759 167.961C31.1759 168.305 31.1759 168.305 31.5194 167.961C46.6342 166.244 71.3675 164.526 105.376 163.495V177.58V203C105.376 203.344 105.376 203.687 105.719 203.687H124.269H143.506C143.85 203.687 143.85 203.344 143.85 203C143.163 195.786 143.163 184.45 143.506 168.992V162.121L160.339 161.091C160.682 161.091 160.682 161.091 160.682 160.747C162.743 157.656 164.804 152.846 167.209 145.976C169.614 138.075 170.301 131.548 169.614 126.739ZM105.032 88.6085C105.032 92.3872 105.032 96.1659 104.689 100.632C104.345 109.22 104.345 118.151 104.689 126.739V129.487C95.7573 129.144 89.574 129.144 85.7953 129.144L63.1231 130.174C66.2147 127.426 73.4286 119.869 84.4212 107.502C93.6962 96.8529 100.91 87.2344 105.376 79.3335C105.719 80.364 105.376 83.4557 105.032 88.6085ZM459.122 126.739C459.122 126.395 458.778 126.052 458.435 126.052C450.19 127.083 441.946 128.113 434.045 128.8C434.045 109.22 433.014 76.9289 433.014 57.6919C433.014 46.6993 432.327 36.0502 430.953 25.7447C430.953 25.4012 430.953 25.4012 430.61 25.0576C419.617 21.2789 411.029 18.8743 405.189 18.1873L399.349 17.5002C397.288 17.5002 396.258 17.5002 395.914 17.8438L392.823 21.966C392.136 23.3401 385.952 33.9891 373.929 53.5696C364.311 69.3715 356.753 81.0511 351.6 88.265C347.478 93.7612 337.173 108.533 329.959 117.808C326.524 122.273 323.088 126.739 319.31 130.518C317.592 132.922 312.439 137.388 310.722 139.106C309.691 140.136 309.691 142.197 310.722 145.976C312.439 153.533 315.531 160.747 320.684 167.961C320.684 168.305 320.684 168.305 321.027 167.961C336.142 166.244 360.875 164.526 394.884 163.495V177.58V203C394.884 203.344 394.884 203.687 395.227 203.687H413.777H433.014C433.358 203.687 433.358 203.344 433.358 203C432.671 195.786 432.671 184.45 433.014 168.992V162.121L449.847 161.091C450.19 161.091 450.19 161.091 450.19 160.747C452.251 157.656 454.312 152.846 456.717 145.976C459.122 138.075 459.809 131.548 459.122 126.739ZM394.54 88.6085C394.54 92.3872 394.54 96.1659 394.197 100.632C393.853 109.22 393.853 118.151 394.197 126.739V129.487C385.265 129.144 379.082 129.144 375.303 129.144L352.631 130.174C355.723 127.426 362.937 119.869 373.929 107.502C383.204 96.8529 390.418 87.2344 394.884 79.3335C395.227 80.364 394.884 83.4557 394.54 88.6085Z" fill="white"/>
</g>
<g filter="url(#filter1_i)">
<path d="M246.864 178.094L256.773 168.209C293.636 135.696 317.727 113.772 317.727 86.8832C317.727 64.9593 300.726 48 278.75 48C266.682 48 254.659 53.6677 246.864 62.8503C239.068 53.6677 227.001 48 214.978 48C193.001 48 176.001 64.9592 176.001 86.8832C176.001 113.772 200.091 135.696 236.954 168.209L246.864 178.094Z" fill="#DF0F0F"/>
</g>
<defs>
<filter id="filter0_d" x="0.164297" y="0.801449" width="484.258" height="231.512" filterUnits="userSpaceOnUse" color-interpolation-filters="sRGB">
<feFlood flood-opacity="0" result="BackgroundImageFix"/>
<feColorMatrix in="SourceAlpha" type="matrix" values="0 0 0 0 0 0 0 0 0 0 0 0 0 0 0 0 0 0 127 0"/>
<feOffset dx="2.38554" dy="5.96386"/>
<feGaussianBlur stdDeviation="11.3313"/>
<feColorMatrix type="matrix" values="0 0 0 0 0 0 0 0 0 0 0 0 0 0 0 0 0 0 0.06 0"/>
<feBlend mode="normal" in2="BackgroundImageFix" result="effect1_dropShadow"/>
<feBlend mode="normal" in="SourceGraphic" in2="effect1_dropShadow" result="shape"/>
</filter>
<filter id="filter1_i" x="176" y="48" width="265.47" height="171.342" filterUnits="userSpaceOnUse" color-interpolation-filters="sRGB">
<feFlood flood-opacity="0" result="BackgroundImageFix"/>
<feBlend mode="normal" in="SourceGraphic" in2="BackgroundImageFix" result="shape"/>
<feColorMatrix in="SourceAlpha" type="matrix" values="0 0 0 0 0 0 0 0 0 0 0 0 0 0 0 0 0 0 127 0" result="hardAlpha"/>
<feOffset dx="185.617" dy="41.2482"/>
<feGaussianBlur stdDeviation="61.8723"/>
<feComposite in2="hardAlpha" operator="arithmetic" k2="-1" k3="1"/>
<feColorMatrix type="matrix" values="0 0 0 0 0.779167 0 0 0 0 0.0746701 0 0 0 0 0.0746701 0 0 0 0.83 0"/>
<feBlend mode="normal" in2="shape" result="effect1_innerShadow"/>
</filter>
</defs>
</svg>
