<svg width="110" height="26" viewBox="0 0 110 26" fill="none" xmlns="http://www.w3.org/2000/svg">
<path d="M13.0249 18.2772C12.9941 18.3081 12.994 18.3434 12.9587 18.3434H9.72865H0.329576C0.298687 18.3434 0.263385 18.3125 0.263385 18.2772C0.329575 16.0796 0.329575 14.6588 0.294274 13.9792C0.294274 13.8159 0.263384 13.3658 0.228082 12.6201L0.131006 10.908V9.52236C0.161895 8.909 0.161894 8.45449 0.161894 8.16766C0.131005 5.64801 0.131005 4.35508 0.0957031 4.32419V2.87241V1.9987C0.0957031 1.73835 0.095703 1.57949 0.126592 1.54418C0.192783 1.47799 0.351639 1.38092 0.642878 1.28384C0.867926 1.18676 1.15917 1.12057 1.48129 1.05879C2.16085 0.895517 2.99927 0.83374 4.00095 0.83374C4.03184 0.83374 4.03184 0.864628 4.03184 0.89993C4.03184 1.31914 4.00095 2.70914 3.93476 5.06553C3.90387 6.61439 3.90387 7.87642 3.93476 8.81192C4.03184 10.5902 4.06273 11.7508 4.06273 12.2362C4.06273 12.5274 4.06273 12.9466 4.03184 13.4629V13.9792C4.03184 14.2704 4.03184 14.3984 4.03184 14.3984C4.00095 14.3675 4.06272 14.3675 4.1598 14.3675H4.35396H4.87025C5.35565 14.3984 5.87194 14.3984 6.45442 14.3675H13.2412C13.272 14.3675 13.3074 14.3984 13.3074 14.4337C13.3162 16.2738 13.2191 17.5667 13.0249 18.2772Z" fill="black"/>
<path d="M27.5645 11.0758C27.5645 11.4332 27.5336 11.7862 27.4983 12.1436C27.11 14.9545 25.2699 17.4742 22.684 18.3479C21.4264 18.798 20.0673 18.798 18.6464 18.3479C17.2255 17.9287 16.1576 17.1212 15.4472 15.9562C13.9292 13.2733 14.3175 10.2373 16.0296 7.74858C16.8681 6.55273 18.0021 5.67902 19.3877 5.13184C20.9366 4.51847 22.3928 4.45228 23.7166 4.87149C26.2054 5.67901 27.4983 8.64876 27.5645 11.0758ZM22.1368 7.87654C20.8439 7.51911 19.6834 8.45902 18.9376 9.75194C18.1963 11.0758 18.033 12.4349 18.4213 13.7896C18.6155 14.5 18.9376 14.9854 19.3568 15.2105C19.904 15.5679 20.5836 15.5326 21.3602 15.1796C22.5252 14.6324 23.2974 13.4983 23.7166 11.7862C24.074 10.105 23.6548 8.29575 22.1368 7.87654Z" fill="black"/>
<path d="M41.2308 6.38944C41.0367 6.94103 40.6175 7.4882 40.0041 8.07068C39.5187 8.55607 39.0024 8.90909 38.4861 9.20033C38.4552 9.23122 38.4552 9.23122 38.4552 9.20033C37.6786 8.29572 36.0989 8.07068 35.031 8.61785C34.2896 8.97528 33.7734 9.55335 33.4821 10.4271C33.385 10.7801 33.2571 11.4287 33.16 12.3642C33.0629 13.238 33.032 14.2043 33.032 15.2722C33.0629 16.4681 33.1291 17.4697 33.2571 18.2773C33.2571 18.3082 33.2571 18.3435 33.2262 18.3435C32.9349 18.3126 31.5141 18.3126 28.9635 18.3435C28.9326 18.3435 28.8973 18.3126 28.8973 18.2773C28.8973 18.242 28.8664 17.3418 28.8002 15.6296C28.7032 13.5292 28.7693 11.3979 28.9282 9.26652C28.9944 8.58696 29.0562 7.87652 29.0915 7.13518C29.1577 6.10261 29.1886 5.52013 29.1886 5.42305C29.1886 5.39216 29.2194 5.35686 29.2547 5.35686C30.0314 5.06562 30.5477 4.87146 30.8389 4.80527C31.3905 4.6773 32.1009 4.61112 32.9085 4.61112C32.9394 4.61112 32.9394 4.61112 32.9394 4.642C32.9702 5.32156 32.9702 5.86874 32.9702 6.25705V6.87042C33.3277 6.25705 33.7778 5.77166 34.2941 5.41864C35.1016 4.87146 36.2312 4.58023 37.6212 4.61112C39.0112 4.61112 40.4013 5.29067 41.2088 6.32325C41.2308 6.35855 41.2308 6.35855 41.2308 6.38944Z" fill="black"/>
<path d="M60.7445 18.3434H58.644H56.5436C56.5127 18.3434 56.5127 18.3434 56.5127 18.3125L55.9964 16.5342L55.511 14.7558C55.383 14.4028 55.2198 13.9174 54.9947 13.3658C53.4105 13.4629 51.3763 13.5291 48.9228 13.6262C48.5654 14.5617 48.2124 15.4045 47.9211 16.212C47.7932 16.6312 47.2416 17.7962 47.0827 18.3125C47.0518 18.3434 47.0518 18.3434 47.0165 18.3434H42.4626C42.3964 18.3434 42.3964 18.3125 42.4317 18.2463C42.5597 17.955 42.9833 17.0196 43.2083 16.6312C43.4996 16.1458 43.7908 15.5325 44.1438 14.8529L45.2426 12.4965C45.728 11.4287 46.1163 10.6564 46.3723 10.171C46.9194 9.10316 47.9211 7.16598 48.4418 6.03632C48.6669 5.52004 49.2493 4.32419 49.5097 3.8388C49.7039 3.41959 49.898 3.00038 50.0922 2.64295C50.1893 2.3826 50.3172 2.15755 50.4143 1.9325C50.5423 1.70746 50.6394 1.57507 50.6702 1.54418C50.7364 1.47799 50.9306 1.38092 51.2836 1.28384C51.5749 1.18676 51.897 1.12057 52.2544 1.0279C52.9957 0.89993 53.8386 0.83374 54.7079 0.83374C54.7388 0.83374 54.7388 0.83374 54.7741 0.864629C54.9373 1.4118 55.4845 2.93419 56.4553 5.35676C56.8083 6.26137 57.2319 7.55429 57.7791 9.20023C58.3263 10.8462 58.7499 11.9802 58.975 12.6554L59.9458 15.303C60.3341 16.4989 60.8195 17.4697 61.3976 18.2419C61.4549 18.4051 61.0004 18.3434 60.7445 18.3434ZM53.8959 10.299C53.5738 9.36351 53.3796 8.75014 53.2826 8.52068L52.25 5.48473L51.4734 7.26305C51.1821 7.90731 50.9571 8.4589 50.7938 8.9443C50.6305 9.30173 50.3437 10.171 50.2466 10.5285L52.0867 10.4314L53.8959 10.299Z" fill="black"/>
<path d="M82.7462 15.7883C82.7462 17.0503 82.7153 17.8887 82.68 18.2771C82.6491 18.308 82.6491 18.3433 82.6138 18.3433H79.0925C79.0616 18.3433 79.0616 18.3124 79.0616 18.2771C79.0307 17.9858 79.0307 17.0503 79.0307 15.4V12.7877V11.8522C79.0616 11.305 79.0616 11.0138 79.0307 10.9476C78.9998 10.0121 78.7704 9.3634 78.4173 9.01038C77.676 8.45879 76.639 8.59117 75.8668 9.10746C75.3152 9.49578 74.9931 10.0783 74.896 10.8196C74.7989 11.6271 74.7019 13.0171 74.6357 15.0514C74.6048 16.5385 74.5695 17.6019 74.5695 18.2815C74.5695 18.3124 74.5386 18.3477 74.5033 18.3477H70.8849C70.854 18.3477 70.854 18.3168 70.854 18.2815C70.8231 17.9594 70.8231 17.0856 70.8231 15.6339V13.1142V11.5653C70.8231 10.6916 70.7569 10.0474 70.598 9.62816C70.3377 8.9486 69.8214 8.62647 69.0492 8.65736C68.1137 8.72355 67.4032 9.30162 66.9796 10.4357C66.8163 10.824 66.7193 11.3712 66.6575 12.1169C66.6266 12.6994 66.5604 13.4407 66.5295 14.3145L66.4324 15.7045C66.4324 16.384 66.4015 17.4828 66.4015 18.2903C66.4015 18.3212 66.3706 18.3565 66.3353 18.3565H62.9111C62.8802 18.3565 62.8449 18.3256 62.8802 18.2903C62.9111 17.5137 62.9464 16.9312 62.9111 16.5473C62.9111 16.4193 62.9111 15.806 62.8802 14.7381C62.8802 14.4159 62.8802 13.8335 62.9111 13.0259C62.942 12.2184 62.942 11.5742 62.9111 11.1197L62.686 7.6292C62.6551 6.56133 62.6198 6.04504 62.6198 6.01415C62.589 5.65672 62.5537 5.49786 62.589 5.46256C62.589 5.39637 62.686 5.29929 62.8493 5.20662C63.5906 4.81831 64.7247 4.62415 66.3045 4.62415C66.3354 4.62415 66.3706 4.62415 66.3706 4.65504C66.4015 5.36548 66.4015 5.91707 66.4015 6.33628C66.4015 6.49955 66.4015 6.7246 66.3706 7.01584C66.6928 6.43336 67.0149 5.98326 67.3723 5.65672C68.246 4.81831 69.4728 4.46088 71.1187 4.62415C72.2837 4.75212 73.153 5.40078 73.7664 6.59663C73.7664 6.56574 73.8325 6.49955 73.8325 6.49955C74.4768 5.69202 75.3196 5.14485 76.3213 4.85361C77.6142 4.49618 78.7439 4.49618 79.6794 4.82272C80.7473 5.14485 81.4886 5.8906 81.974 7.02025C82.4594 8.1499 82.7153 9.31486 82.7506 10.5416C82.7506 10.8328 82.7506 11.2829 82.7197 11.9007C82.6888 12.4832 82.6888 12.9333 82.7197 13.2245C82.7462 13.882 82.7462 14.7557 82.7462 15.7883Z" fill="black"/>
<path d="M96.505 18.2773C96.505 18.3082 96.4741 18.3435 96.4388 18.3435H94.6605H92.9175C92.8866 18.3435 92.8513 18.3126 92.8513 18.2773C92.8204 17.5977 92.8204 17.0505 92.8204 16.6622C92.8204 16.499 92.8204 16.3048 92.8513 16.0797C92.3968 16.8211 91.8805 17.3727 91.3024 17.7919C90.5611 18.2773 89.7535 18.5332 88.8489 18.6303C87.7193 18.7274 86.7794 18.5023 86.0689 17.9507C85.1643 17.3065 84.6172 16.3357 84.3259 15.0428C84.0656 13.7498 84.0347 13.1056 83.9376 11.6847C83.9067 11.4596 83.9376 10.5197 83.9685 8.8738C83.9994 8.3884 83.9994 7.9383 83.9685 7.58087C83.9685 7.0337 83.9994 5.70547 83.9994 5.41423C83.9994 5.38335 83.9994 5.34804 84.0303 5.34804C85.1952 4.86265 86.3867 4.60671 87.5825 4.60671C87.6134 4.60671 87.6134 4.60671 87.6134 4.6376C87.6134 5.09211 87.6134 5.86433 87.6796 6.28354C87.6796 6.76894 87.6487 7.67354 87.6487 8.18983C87.6178 8.80319 87.6178 9.90196 87.6487 11.4199C87.6487 12.0995 87.6487 12.2275 87.7458 12.9688C87.8428 13.8734 88.1959 14.4868 89.0078 14.7471C89.6212 14.9104 90.3007 14.7471 91.0421 14.3279C91.7834 13.9087 92.2997 13.2953 92.5291 12.5187C92.6924 12.0333 92.7895 11.1949 92.8204 9.99904C92.8513 9.31948 92.8513 7.80151 92.8513 5.40982C92.8513 5.37893 92.8513 5.34363 92.8821 5.34363C94.0471 4.85823 95.1768 4.60229 96.3064 4.60229C96.3373 4.60229 96.3726 4.60229 96.3726 4.63318C96.3726 5.85992 96.3726 7.05576 96.3417 8.22072C96.3108 10.127 96.3108 11.9671 96.4079 13.7454C96.4741 14.8221 96.505 16.3401 96.505 18.2773Z" fill="black"/>
<path d="M110.17 6.38944C109.976 6.94103 109.557 7.4882 108.944 8.07068C108.458 8.55607 107.942 8.90909 107.426 9.20033C107.395 9.23122 107.395 9.23122 107.395 9.20033C106.618 8.29572 105.038 8.07068 103.97 8.61785C103.229 8.97528 102.713 9.55335 102.422 10.4271C102.324 10.7801 102.197 11.4287 102.099 12.3642C102.002 13.238 101.971 14.2043 101.971 15.2722C102.002 16.4681 102.069 17.4697 102.197 18.2773C102.197 18.3082 102.197 18.3435 102.166 18.3435C101.874 18.3126 100.453 18.3126 97.903 18.3435C97.8721 18.3435 97.8368 18.3126 97.8368 18.2773C97.8368 18.242 97.8059 17.3418 97.7397 15.6296C97.6426 13.5292 97.7088 11.3979 97.8677 9.26652C97.9339 8.58696 97.9956 7.87652 98.0309 7.13518C98.0971 6.10261 98.128 5.52013 98.128 5.42305C98.128 5.39216 98.1589 5.35686 98.1942 5.35686C98.9708 5.06562 99.4871 4.87146 99.7784 4.80527C100.33 4.6773 101.04 4.61112 101.848 4.61112C101.879 4.61112 101.879 4.61112 101.879 4.642C101.91 5.32156 101.91 5.86874 101.91 6.25705V6.87042C102.267 6.25705 102.717 5.77166 103.234 5.41864C104.041 4.87146 105.171 4.58023 106.561 4.61112C107.951 4.61112 109.341 5.29067 110.148 6.32325C110.17 6.35855 110.17 6.35855 110.17 6.38944Z" fill="black"/>
<path d="M33.2171 18.2553C33.4862 20.1836 39.3154 24.3801 42.6647 17.7125C44.6283 13.8072 47.0818 18.2773 47.0818 18.2773C47.0818 18.2773 44.5224 25.4127 37.3915 25.4127C30.6268 25.4127 29.0073 20.4263 28.8838 18.2155" fill="black"/>
<path d="M38.0051 21.3882C40.9101 21.3882 43.265 19.1063 43.265 16.2915C43.265 13.4767 40.9101 11.1948 38.0051 11.1948C35.1001 11.1948 32.7451 13.4767 32.7451 16.2915C32.7451 19.1063 35.1001 21.3882 38.0051 21.3882Z" fill="white"/>
<path d="M33.593 10.1182C33.593 10.1182 31.8985 14.6412 32.8781 17.4433C33.5135 19.2613 34.8771 11.9009 34.8771 11.9009L33.593 10.1182Z" fill="white"/>
<path d="M42.4141 19.0671C42.4141 19.0671 44.2409 16.3268 46.1825 10.48C44.7969 12.4216 42.5994 16.5386 42.5994 16.5386L42.4141 19.0671Z" fill="white"/>
<path d="M38.3935 19.0934L37.8507 18.5507C35.8297 16.7635 34.5059 15.5588 34.5059 14.0806C34.5059 12.8759 35.4369 11.9404 36.646 11.9404C37.3079 11.9404 37.9698 12.2493 38.3935 12.7568C38.8215 12.2493 39.4834 11.9404 40.1409 11.9404C41.3456 11.9404 42.2811 12.8715 42.2811 14.0806C42.2811 15.5588 40.9572 16.7635 38.9362 18.5507L38.3935 19.0934Z" fill="#FF0000"/>
<path d="M50.6831 1.49561C50.6831 1.49561 45.8158 11.5742 45.5996 12.1567C45.3834 12.7392 45.123 9.81356 45.123 9.81356L50.6831 1.49561Z" fill="white"/>
</svg>
