<svg width="44" height="66" viewBox="0 0 44 66" fill="none" xmlns="http://www.w3.org/2000/svg">
<path d="M41.6015 35.5925C40.8911 34.4055 41.5442 33.4612 42.8459 34.1716C42.2546 30.4385 39.2893 25.4609 39.2893 25.4609H40.5336C40.5336 25.4609 38.698 24.1592 37.3918 22.2617C36.09 20.3642 39.9379 4.72119 36.9196 4.72119C33.8969 4.72119 30.2256 9.46044 27.675 12.7214C25.2083 15.8765 21.965 15.422 21.762 15.3911H21.7576H21.7532C21.5458 15.422 18.3024 15.8765 15.8401 12.7214C13.294 9.46044 9.61821 4.72119 6.59551 4.72119C3.5728 4.72119 7.4251 20.3642 6.12335 22.2617C4.8216 24.1592 2.9815 25.4609 2.9815 25.4609H4.22588C4.22588 25.4609 1.26495 30.4385 0.669239 34.1716C1.97099 33.4612 2.62407 34.4099 1.91362 35.5925C1.20318 36.7795 -2.20343 43.8884 2.83147 51.2091C3.3654 49.2542 3.42277 45.7594 3.42277 45.7594L4.28325 52.8992L5.81887 50.2427C5.81887 50.2427 7.36773 59.2402 16.1931 63.5647C13.1131 59.1343 14.6222 55.7851 14.6222 55.7851L18.5054 64.156L18.7569 60.4669C18.7569 60.4669 19.9837 63.7279 21.7532 65.7445C21.7532 65.749 21.7532 65.7534 21.7532 65.7578L21.7576 65.7534L21.762 65.7578C21.762 65.7534 21.762 65.749 21.762 65.7445C23.5359 63.7279 24.7582 60.4669 24.7582 60.4669L25.0097 64.156L28.8929 55.7851C28.8929 55.7851 30.4021 59.1343 27.322 63.5647C36.1518 59.2402 37.6963 50.2427 37.6963 50.2427L39.2319 52.8992L40.0924 45.7594C40.0924 45.7594 40.1497 49.2542 40.6837 51.2091C45.7186 43.8884 42.312 36.7751 41.6015 35.5925Z" fill="#353535"/>
<path d="M6.78072 1.99855C7.06313 2.65163 8.37371 4.5844 8.83263 5.11834C9.60485 6.01412 8.49285 6.43332 9.80784 6.67161C9.83431 6.67602 9.85638 6.68926 9.87844 6.70691C8.69583 6.94961 7.0852 7.86745 5.91583 8.21164C5.86287 8.06602 5.5937 9.21774 5.54516 9.08536C4.68468 6.91872 4.57878 2.84138 5.43484 0.334961C5.86287 1.69849 6.44094 2.97817 6.82926 4.22256C6.91751 4.20049 6.741 4.24462 6.82926 4.22256L6.78072 1.99855Z" fill="#353535"/>
<path d="M36.7296 1.99855C36.4471 2.65163 35.1366 4.5844 34.6776 5.11834C33.9054 6.01412 35.0174 6.43332 33.7024 6.67161C33.676 6.67602 33.6539 6.68926 33.6318 6.70691C34.8144 6.94961 36.4251 7.86745 37.5945 8.21164C37.6474 8.06602 37.9166 9.21774 37.9651 9.08536C38.8256 6.91872 38.9315 2.84138 38.0754 0.334961C37.6474 1.69849 37.0693 2.97817 36.681 4.22256C36.5928 4.20049 36.7693 4.24462 36.681 4.22256L36.7296 1.99855Z" fill="#353535"/>
<path d="M8.77533 5.04785C8.77533 5.04785 9.24749 5.66122 9.73288 6.04071C10.2139 6.42462 9.07098 5.81125 9.07098 5.81125L8.43555 5.24642L8.77533 5.04785Z" fill="#353535"/>
<path d="M34.7349 5.04785C34.7349 5.04785 34.2627 5.66122 33.7773 6.04071C33.2964 6.42462 34.4392 5.81125 34.4392 5.81125L35.0747 5.24642L34.7349 5.04785Z" fill="#353535"/>
<path d="M9.1377 26.3345C9.1377 26.3345 10.4703 25.2313 12.5443 24.993C14.0755 24.8165 15.9068 24.8607 17.0629 26.8817C18.219 28.9027 17.9013 30.9502 17.5836 31.6871C17.1203 31.9607 16.7805 31.4621 16.732 31.0164C16.7011 30.7031 16.7893 30.0235 15.9289 30.05C15.0684 30.0765 13.3739 30.4074 12.3237 28.7924C12.0104 28.4085 11.9662 26.9567 11.6441 26.5066C11.322 26.0565 10.8587 25.8623 9.1377 26.3345Z" fill="black"/>
<path d="M16.701 28.8897C16.401 29.6266 15.0242 30.0987 13.9166 29.6531C12.809 29.203 12.3942 27.9983 12.6943 27.2658C12.9943 26.5333 14.1328 26.2994 15.236 26.7495C16.348 27.1952 17.0011 28.1527 16.701 28.8897Z" fill="white"/>
<path d="M13.8542 26.5333C13.8542 26.5333 13.435 28.7352 14.4411 29.1192C15.4472 29.5031 16.771 28.5102 16.7842 27.8395C16.5768 27.5438 15.6634 26.3215 13.8542 26.5333Z" fill="black"/>
<path d="M15.1343 15.5058C13.3869 12.7523 10.5583 9.59719 9.81257 8.83821C9.06683 8.07481 7.8092 7.16138 7.13847 7.75268C6.46774 8.3484 6.32212 10.6474 7.19142 14.9233C7.85774 18.202 8.25489 18.78 7.72536 20.8937C9.58311 21.4144 16.8817 18.2593 15.1343 15.5058Z" fill="white"/>
<path d="M34.3689 26.3345C34.3689 26.3345 33.0362 25.2313 30.9623 24.993C29.4311 24.8165 27.5998 24.8607 26.4437 26.8817C25.2875 28.9027 25.6052 30.9502 25.923 31.6871C26.3863 31.9607 26.7261 31.4621 26.7746 31.0164C26.8055 30.7031 26.7172 30.0235 27.5777 30.05C28.4382 30.0765 30.1327 30.4074 31.1829 28.7924C31.4962 28.4085 31.5403 26.9567 31.8625 26.5066C32.189 26.0565 32.6523 25.8623 34.3689 26.3345Z" fill="black"/>
<path d="M26.9073 28.7218C27.1853 29.4058 28.465 29.8471 29.4931 29.4279C30.5213 29.0087 30.9096 27.8923 30.6316 27.2083C30.3536 26.5243 29.2945 26.3081 28.2664 26.7273C27.2426 27.1465 26.6337 28.0379 26.9073 28.7218Z" fill="white"/>
<path d="M29.5635 26.5289C29.5635 26.5289 29.9165 28.3955 29.0648 28.7176C28.2132 29.0441 27.0923 28.2013 27.0791 27.6365C27.26 27.3849 28.0322 26.348 29.5635 26.5289Z" fill="black"/>
<path d="M28.0947 15.1264C30.023 12.0949 32.8295 8.23817 33.6503 7.39976C34.471 6.56134 35.5786 5.61702 36.3155 6.27451C37.0525 6.93201 37.2157 9.35017 36.5406 14.1027C35.8654 18.8551 35.433 19.4729 35.5168 20.8276C33.4649 21.4013 26.1663 18.1624 28.0947 15.1264Z" fill="white"/>
<path d="M15.2272 15.3118C15.2272 15.3118 11.0351 13.2687 10.0996 12.1125C11.847 14.8087 13.3209 15.7133 14.2476 16.2473C11.0395 15.1353 10.0996 14.4027 10.0996 14.4027C10.0996 14.4027 10.9424 17.1342 12.3236 17.8005C13.7004 18.4668 11.141 18.2021 10.5762 17.8005C11.4896 18.8154 11.7147 19.7245 13.846 19.6009C15.642 18.6566 16.1494 16.5561 15.2272 15.3118Z" fill="#353535"/>
<path d="M27.1551 15.3118C27.1551 15.3118 31.3472 13.2687 32.2827 12.1125C30.5353 14.8087 29.0614 15.7133 28.1348 16.2473C31.3428 15.1353 32.2827 14.4027 32.2827 14.4027C32.2827 14.4027 31.4399 17.1342 30.0587 17.8005C28.6775 18.4668 31.2413 18.2021 31.8061 17.8005C30.8927 18.8154 30.6677 19.7245 28.5363 19.6009C26.7403 18.6566 26.2329 16.5561 27.1551 15.3118Z" fill="#353535"/>
<path d="M30.4023 33.4876C28.5092 32.5124 23.1875 35.0585 21.7578 38.6196C20.328 35.0585 15.0063 32.5124 13.1133 33.4876C11.2158 34.4672 11.71 38.849 14.7416 41.7967C15.5976 42.6307 16.6655 43.1029 17.7069 43.3676C17.9849 44.665 19.8382 45.9005 21.7269 45.927V45.9314C21.7357 45.9314 21.7489 45.9314 21.7578 45.9314C21.7666 45.9314 21.7798 45.9314 21.7886 45.9314V45.927C23.6773 45.9005 25.5306 44.665 25.8086 43.3676C26.8544 43.1029 27.9223 42.6263 28.774 41.7967C31.8011 38.849 32.2953 34.4672 30.4023 33.4876Z" fill="white"/>
<path d="M25.9764 22.544C25.4513 19.9714 25.5219 17.0414 26.0205 16.3618C25.341 17.1385 25.4778 19.3051 24.3614 20.7613C23.1082 22.4028 23.1302 23.7531 23.1302 23.7531L22.2433 21.0525L21.7535 22.9985L21.2636 21.0525L20.3767 23.7531C20.3767 23.7531 20.3987 22.4028 19.1455 20.7613C18.0335 19.3051 18.1659 17.1385 17.4864 16.3618C17.985 17.0414 18.0556 19.9758 17.5305 22.544C16.9789 25.249 18.3866 25.8315 18.3866 25.8315C18.5719 25.3064 18.2851 24.8872 18.1615 23.8943C18.0424 22.9015 18.2939 22.1822 18.3866 21.507C18.5719 21.635 18.969 22.3852 19.2956 23.4045C19.6221 24.4238 20.1737 24.6754 20.4782 24.4591C20.6856 24.3091 20.8268 23.5104 21.2019 22.747C21.3078 23.0868 21.5725 23.6207 21.7446 23.9561V23.9826C21.7446 23.9782 21.749 23.9737 21.749 23.9693C21.749 23.9737 21.7535 23.9782 21.7535 23.9826V23.9561C21.93 23.6207 22.1903 23.0868 22.2962 22.747C22.6669 23.5104 22.8125 24.3091 23.0199 24.4591C23.32 24.6754 23.876 24.4238 24.2025 23.4045C24.529 22.3852 24.9262 21.6394 25.1115 21.507C25.1998 22.1822 25.4557 22.9015 25.3322 23.8943C25.213 24.8872 24.9218 25.3064 25.1115 25.8315C25.1159 25.8315 26.528 25.249 25.9764 22.544Z" fill="black"/>
<path d="M21.8901 34.3569C21.8548 34.379 21.8063 34.3966 21.7577 34.4055C21.7092 34.3966 21.6606 34.379 21.6253 34.3569C20.9105 33.8539 20.1868 34.0348 19.291 34.3746C19.7588 34.5864 20.1338 34.7099 20.4604 34.9129C20.7472 35.0938 21.0296 35.3321 21.2105 35.6101C21.4268 35.9411 21.5327 36.3426 21.7533 36.881C21.9739 36.3426 22.0843 35.9411 22.2961 35.6101C22.477 35.3321 22.7594 35.0938 23.0462 34.9129C23.3728 34.7055 23.7523 34.582 24.2156 34.3746C23.3286 34.0348 22.605 33.8539 21.8901 34.3569Z" fill="#FF0000"/>
<path d="M26.1039 40.7157C26.1039 40.7157 22.9003 40.2435 22.5694 38.9991C22.234 37.7548 22.3311 35.9544 21.7618 35.8882C21.1926 35.9544 21.2058 36.9031 20.9102 38.1563C20.6542 39.233 19.3878 39.6169 18.1787 41.1349C19.7099 40.0361 20.6587 39.6081 21.7574 39.6081C22.8562 39.6081 26.1039 40.7157 26.1039 40.7157Z" fill="#353535"/>
<path d="M9.42427 26.1272C9.42427 26.1272 5.27632 28.5984 1.19015 32.0491C1.0004 32.4992 0.788595 33.5229 0.665039 34.1672C1.06218 33.9686 1.19456 33.9024 1.68879 33.8892C2.36834 33.876 3.14498 33.3244 3.78041 32.7419C6.57807 30.1825 10.1303 25.505 11.3703 26.2287C12.6014 25.6948 9.42427 26.1272 9.42427 26.1272Z" fill="black"/>
<path d="M1.88726 35.5925C2.5977 34.4055 1.94462 33.4612 0.642871 34.1716C1.23417 30.4385 4.19951 25.4609 4.19951 25.4609H2.95513C2.95513 25.4609 4.79082 24.1592 6.09698 22.2617C7.40314 20.3642 3.55085 4.72119 6.56914 4.72119C9.59184 4.72119 13.2632 9.46044 15.8138 12.7214C18.2805 15.8765 21.5238 15.422 21.7268 15.3911H21.7312H21.7356C21.943 15.422 25.1864 15.8765 27.6486 12.7214C30.1948 9.46044 33.8706 4.72119 36.8933 4.72119C39.916 4.72119 36.0637 20.3642 37.3654 22.2617C38.6672 24.1592 40.5073 25.4609 40.5073 25.4609H39.2629C39.2629 25.4609 42.2238 30.4385 42.8195 34.1716C41.5178 33.4612 40.8647 34.4099 41.5752 35.5925C42.2856 36.7795 45.6922 43.8884 40.6573 51.2091C40.1234 49.2542 40.066 45.7594 40.066 45.7594L39.2055 52.8992L37.6699 50.2427C37.6699 50.2427 36.121 59.2402 27.2956 63.5647C30.3757 59.1343 28.8666 55.7851 28.8666 55.7851L24.9834 64.156L24.7318 60.4669C24.7318 60.4669 23.5051 63.7279 21.7356 65.7445C21.7356 65.749 21.7356 65.7534 21.7356 65.7578L21.7312 65.7534L21.7268 65.7578C21.7268 65.7534 21.7268 65.749 21.7268 65.7445C19.9529 63.7279 18.7306 60.4669 18.7306 60.4669L18.479 64.156L14.5959 55.7851C14.5959 55.7851 13.0867 59.1343 16.1668 63.5647C7.33695 59.2402 5.7925 50.2427 5.7925 50.2427L4.25688 52.8992L3.3964 45.7594C3.3964 45.7594 3.33904 49.2542 2.8051 51.2091C-2.2298 43.8884 1.17681 36.7751 1.88726 35.5925Z" fill="#353535"/>
<path d="M36.7081 1.99855C36.4257 2.65163 35.1151 4.5844 34.6562 5.11834C33.8839 6.01412 34.9959 6.43332 33.681 6.67161C33.6545 6.67602 33.6324 6.68926 33.6104 6.70691C34.793 6.94961 36.4036 7.86745 37.573 8.21164C37.6259 8.06602 37.8951 9.21774 37.9436 9.08536C38.8041 6.91872 38.91 2.84138 38.054 0.334961C37.6259 1.69849 37.0479 2.97817 36.6595 4.22256C36.5713 4.20049 36.7478 4.24462 36.6595 4.22256L36.7081 1.99855Z" fill="#353535"/>
<path d="M6.75923 1.99855C7.04165 2.65163 8.35222 4.5844 8.81114 5.11834C9.58337 6.01412 8.47136 6.43332 9.78635 6.67161C9.81283 6.67602 9.83489 6.68926 9.85696 6.70691C8.67435 6.94961 7.06371 7.86745 5.89434 8.21164C5.84139 8.06602 5.57222 9.21774 5.52368 9.08536C4.6632 6.91872 4.55729 2.84138 5.41336 0.334961C5.84139 1.69849 6.41945 2.97817 6.80777 4.22256C6.89603 4.20049 6.71952 4.24462 6.80777 4.22256L6.75923 1.99855Z" fill="#353535"/>
<path d="M34.713 5.04785C34.713 5.04785 34.2409 5.66122 33.7555 6.04071C33.2701 6.42462 34.4174 5.81125 34.4174 5.81125L35.0528 5.24642L34.713 5.04785Z" fill="#353535"/>
<path d="M8.75384 5.04785C8.75384 5.04785 9.226 5.66122 9.7114 6.04071C10.1924 6.42462 9.04949 5.81125 9.04949 5.81125L8.41406 5.24642L8.75384 5.04785Z" fill="#353535"/>
<path d="M34.3513 26.3345C34.3513 26.3345 33.0187 25.2313 30.9447 24.993C29.4135 24.8165 27.5822 24.8607 26.4261 26.8817C25.2699 28.9027 25.5877 30.9502 25.9054 31.6871C26.3687 31.9607 26.7085 31.4621 26.757 31.0164C26.7879 30.7031 26.6997 30.0235 27.5601 30.05C28.4206 30.0765 30.1151 30.4074 31.1653 28.7924C31.4786 28.4085 31.5228 26.9567 31.8449 26.5066C32.1714 26.0565 32.6348 25.8623 34.3513 26.3345Z" fill="black"/>
<path d="M26.7884 28.8897C27.0885 29.6266 28.4653 30.0987 29.5728 29.6531C30.6804 29.203 31.0952 27.9983 30.7952 27.2658C30.4951 26.5333 29.3566 26.2994 28.2534 26.7495C27.1459 27.1952 26.4884 28.1527 26.7884 28.8897Z" fill="white"/>
<path d="M29.6341 26.5333C29.6341 26.5333 30.0533 28.7352 29.0472 29.1192C28.0412 29.5031 26.7173 28.5102 26.7041 27.8395C26.9115 27.5438 27.8249 26.3215 29.6341 26.5333Z" fill="black"/>
<path d="M28.3549 15.5058C30.1024 12.7523 32.9309 9.59719 33.6767 8.83821C34.4224 8.07481 35.68 7.16138 36.3508 7.75268C37.0215 8.3484 37.1671 10.6474 36.2978 14.9233C35.6315 18.202 35.2343 18.78 35.7639 20.8937C33.9061 21.4144 26.6075 18.2593 28.3549 15.5058Z" fill="white"/>
<path d="M9.12012 26.3345C9.12012 26.3345 10.4528 25.2313 12.5267 24.993C14.0579 24.8165 15.8892 24.8607 17.0453 26.8817C18.2015 28.9027 17.8838 30.9502 17.566 31.6871C17.1027 31.9607 16.7629 31.4621 16.7144 31.0164C16.6835 30.7031 16.7718 30.0235 15.9113 30.05C15.0508 30.0765 13.3563 30.4074 12.3061 28.7924C11.9928 28.4085 11.9487 26.9567 11.6265 26.5066C11.3044 26.0565 10.8367 25.8623 9.12012 26.3345Z" fill="black"/>
<path d="M16.5811 28.7218C16.3031 29.4058 15.0234 29.8471 13.9952 29.4279C12.9671 29.0087 12.5788 27.8923 12.8568 27.2083C13.1348 26.5243 14.1938 26.3081 15.222 26.7273C16.2501 27.1465 16.8591 28.0379 16.5811 28.7218Z" fill="white"/>
<path d="M13.9251 26.5289C13.9251 26.5289 13.572 28.3955 14.4237 28.7176C15.2754 29.0441 16.3962 28.2013 16.4094 27.6365C16.2285 27.3849 15.4563 26.348 13.9251 26.5289Z" fill="black"/>
<path d="M15.3943 15.1264C13.4704 12.0949 10.6595 8.23817 9.83874 7.39976C9.01797 6.56134 7.91038 5.61702 7.17346 6.27451C6.43654 6.93201 6.27327 9.35017 6.94841 14.1027C7.62356 18.8596 8.056 19.4729 7.97216 20.8276C10.0241 21.4013 17.3227 18.1624 15.3943 15.1264Z" fill="white"/>
<path d="M28.2626 15.3118C28.2626 15.3118 32.4546 13.2687 33.3901 12.1125C31.6427 14.8087 30.1688 15.7133 29.2422 16.2473C32.4502 15.1353 33.3901 14.4027 33.3901 14.4027C33.3901 14.4027 32.5473 17.1342 31.1661 17.8005C29.7894 18.4668 32.3487 18.2021 32.9136 17.8005C32.0001 18.8154 31.7751 19.7245 29.6437 19.6009C27.8478 18.6566 27.3447 16.5561 28.2626 15.3118Z" fill="#353535"/>
<path d="M16.3346 15.3118C16.3346 15.3118 12.1425 13.2687 11.207 12.1125C12.9545 14.8087 14.4283 15.7133 15.355 16.2473C12.1469 15.1353 11.207 14.4027 11.207 14.4027C11.207 14.4027 12.0499 17.1342 13.431 17.8005C14.8122 18.4668 12.2484 18.2021 11.6836 17.8005C12.597 18.8154 12.8221 19.7245 14.9534 19.6009C16.7494 18.6566 17.2569 16.5561 16.3346 15.3118Z" fill="#353535"/>
<path d="M13.0867 33.4876C14.9797 32.5124 20.3014 35.0585 21.7312 38.6196C23.1609 35.0585 28.4826 32.5124 30.3757 33.4876C32.2731 34.4672 31.7789 38.849 28.7474 41.7967C27.8913 42.6307 26.8234 43.1029 25.782 43.3676C25.504 44.665 23.6507 45.9005 21.7621 45.927V45.9314C21.7532 45.9314 21.74 45.9314 21.7312 45.9314C21.7223 45.9314 21.7091 45.9314 21.7003 45.9314V45.927C19.8116 45.9005 17.9583 44.665 17.6803 43.3676C16.6345 43.1029 15.5666 42.6263 14.715 41.7967C11.6878 38.849 11.1936 34.4672 13.0867 33.4876Z" fill="white"/>
<path d="M17.513 22.544C18.0381 19.9714 17.9675 17.0414 17.4689 16.3618C18.1484 17.1385 18.0117 19.3051 19.1281 20.7613C20.3813 22.4028 20.3592 23.7531 20.3592 23.7531L21.2462 21.0525L21.736 22.9985L22.2258 21.0525L23.1127 23.7531C23.1127 23.7531 23.0907 22.4028 24.3439 20.7613C25.4559 19.3051 25.3235 17.1385 26.0031 16.3618C25.5044 17.0414 25.4338 19.9758 25.9589 22.544C26.5105 25.249 25.1029 25.8315 25.1029 25.8315C24.9175 25.3064 25.2044 24.8872 25.3279 23.8943C25.4471 22.9015 25.1955 22.1822 25.1029 21.507C24.9175 21.635 24.5204 22.3852 24.1939 23.4045C23.8673 24.4238 23.3157 24.6754 23.0113 24.4591C22.8039 24.3091 22.6627 23.5104 22.2876 22.747C22.1817 23.0868 21.9169 23.6207 21.7448 23.9561V23.9826C21.7448 23.9782 21.7404 23.9737 21.7404 23.9693C21.7404 23.9737 21.736 23.9782 21.736 23.9826V23.9561C21.5595 23.6207 21.2991 23.0868 21.1932 22.747C20.8226 23.5104 20.6769 24.3091 20.4695 24.4591C20.1695 24.6754 19.6135 24.4238 19.2869 23.4045C18.9604 22.3852 18.5632 21.6394 18.3779 21.507C18.2897 22.1822 18.0337 22.9015 18.1573 23.8943C18.2764 24.8872 18.5677 25.3064 18.3779 25.8315C18.3735 25.8315 16.9658 25.249 17.513 22.544Z" fill="black"/>
<path d="M21.5989 34.3569C21.6342 34.379 21.6828 34.3966 21.7313 34.4055C21.7799 34.3966 21.8284 34.379 21.8637 34.3569C22.5786 33.8539 23.3022 34.0348 24.198 34.3746C23.7303 34.5864 23.3552 34.7099 23.0287 34.9129C22.7418 35.0938 22.4594 35.3321 22.2785 35.6101C22.0623 35.9411 21.9564 36.3426 21.7357 36.881C21.5151 36.3426 21.4048 35.9411 21.193 35.6101C21.012 35.3321 20.7296 35.0938 20.4428 34.9129C20.1163 34.7055 19.7368 34.582 19.2734 34.3746C20.1648 34.0348 20.8841 33.8539 21.5989 34.3569Z" fill="#FF0000"/>
<path d="M17.3848 40.7157C17.3848 40.7157 20.5884 40.2435 20.9193 38.9991C21.2547 37.7548 21.1576 35.9544 21.7269 35.8882C22.2961 35.9544 22.2829 36.9031 22.5785 38.1563C22.8345 39.233 24.1009 39.6169 25.31 41.1349C23.7788 40.0361 22.83 39.6081 21.7313 39.6081C20.6325 39.6081 17.3848 40.7157 17.3848 40.7157Z" fill="#353535"/>
<path d="M34.0645 26.1272C34.0645 26.1272 38.2124 28.5984 42.2986 32.0491C42.4883 32.4992 42.7001 33.5229 42.8237 34.1672C42.4266 33.9686 42.2942 33.9024 41.8 33.8892C41.1204 33.876 40.3438 33.3244 39.7083 32.7419C36.9107 30.1825 33.3584 25.505 32.1185 26.2287C30.8873 25.6948 34.0645 26.1272 34.0645 26.1272Z" fill="black"/>
</svg>
