<svg width="209" height="189" viewBox="0 0 209 189" fill="none" xmlns="http://www.w3.org/2000/svg">
<path d="M24.5364 174.73C24.4768 174.789 24.4768 174.853 24.4126 174.853H18.2808H0.431108C0.371486 174.853 0.307279 174.794 0.307279 174.73C0.431108 170.566 0.431108 167.876 0.3669 166.59C0.3669 166.284 0.307279 165.428 0.243071 164.019L0.0596213 160.775V158.144C0.119243 156.982 0.119243 156.127 0.119243 155.573C0.0596213 150.801 0.0596213 148.353 0 148.294V145.54V143.888C0 143.398 0 143.092 0.0596213 143.032C0.18345 142.909 0.490729 142.726 1.04108 142.543C1.47219 142.36 2.02254 142.236 2.63709 142.113C3.92583 141.806 5.52185 141.683 7.42055 141.683C7.48017 141.683 7.48017 141.742 7.48017 141.806C7.48017 142.602 7.42055 145.233 7.29672 149.698C7.2371 152.636 7.2371 155.024 7.29672 156.799C7.48017 160.167 7.54438 162.367 7.54438 163.287C7.54438 163.836 7.54438 164.632 7.48476 165.611V166.59C7.48476 167.139 7.48476 167.386 7.48476 167.386C7.42514 167.327 7.54438 167.327 7.73242 167.327H8.09932H9.08078C10.0026 167.386 10.9841 167.386 12.0848 167.327H24.9675C25.0272 167.327 25.0914 167.386 25.0914 167.45C25.0914 170.937 24.9079 173.384 24.5364 174.73Z" fill="black"/>
<path d="M52.1457 161.085C52.1457 161.758 52.0861 162.43 52.0218 163.103C51.2835 168.428 47.7887 173.2 42.8814 174.852C40.4874 175.708 37.9145 175.708 35.2132 174.852C32.5119 174.056 30.4894 172.528 29.141 170.323C26.2563 165.244 26.9947 159.493 30.2463 154.781C31.8423 152.516 33.9887 150.864 36.6258 149.826C39.5702 148.663 42.3311 148.54 44.8444 149.336C49.5682 150.864 52.0218 156.492 52.1457 161.085ZM41.8358 155.023C39.3821 154.35 37.1716 156.126 35.7636 158.573C34.351 161.081 34.0437 163.652 34.7821 166.223C35.149 167.568 35.7636 168.488 36.5616 168.918C37.6027 169.591 38.8914 169.531 40.3636 168.859C42.5696 167.82 44.0464 165.674 44.8398 162.435C45.5185 159.246 44.7205 155.819 41.8358 155.023Z" fill="black"/>
<path d="M78.0902 152.209C77.7233 153.248 76.9253 154.291 75.7604 155.393C74.8385 156.313 73.8571 156.986 72.8756 157.535C72.816 157.594 72.816 157.594 72.816 157.535C71.3438 155.819 68.3398 155.393 66.3127 156.432C64.9001 157.105 63.9187 158.207 63.3683 159.859C63.1849 160.531 62.9372 161.758 62.7538 163.533C62.5703 165.184 62.5107 167.019 62.5107 169.041C62.5703 171.306 62.6941 173.205 62.9418 174.733C62.9418 174.793 62.9418 174.857 62.8822 174.857C62.3318 174.797 59.6305 174.797 54.7829 174.857C54.7232 174.857 54.659 174.797 54.659 174.733C54.659 174.669 54.5994 172.958 54.4756 169.714C54.2921 165.738 54.416 161.698 54.7186 157.658C54.8425 156.373 54.9663 155.027 55.0259 153.618C55.1498 151.66 55.2094 150.557 55.2094 150.374C55.2094 150.315 55.269 150.251 55.3332 150.251C56.8054 149.702 57.7868 149.331 58.3372 149.212C59.3783 148.965 60.7312 148.846 62.263 148.846C62.3226 148.846 62.3226 148.846 62.3226 148.906C62.3823 150.191 62.3823 151.23 62.3823 151.967V153.129C63.0564 151.967 63.9141 151.047 64.8955 150.374C66.4273 149.336 68.5783 148.782 71.2154 148.846C73.8525 148.846 76.4896 150.132 78.026 152.09C78.0902 152.15 78.0902 152.15 78.0902 152.209Z" fill="black"/>
<path d="M115.142 174.852H111.157H107.172C107.112 174.852 107.112 174.852 107.112 174.793L106.131 171.425L105.209 168.058C104.966 167.385 104.658 166.466 104.227 165.427C101.223 165.61 97.357 165.734 92.6928 165.917C92.0186 167.692 91.3444 169.284 90.7895 170.812C90.5419 171.608 89.5008 173.809 89.1935 174.788C89.1339 174.847 89.1339 174.847 89.0697 174.847H80.42C80.2962 174.847 80.2962 174.788 80.3604 174.664C80.608 174.115 81.4015 172.34 81.8326 171.604C82.3829 170.684 82.9378 169.522 83.612 168.236L85.6988 163.771C86.6206 161.753 87.3544 160.28 87.8451 159.365C88.8862 157.347 90.7895 153.673 91.771 151.532C92.2021 150.553 93.3028 148.288 93.7935 147.369C94.1604 146.572 94.5273 145.776 94.8988 145.104C95.0822 144.614 95.3299 144.184 95.5133 143.759C95.761 143.329 95.9445 143.086 96.0041 143.022C96.1279 142.899 96.4948 142.716 97.169 142.533C97.7193 142.35 98.3339 142.226 99.0081 142.043C100.421 141.796 102.012 141.677 103.672 141.677C103.732 141.677 103.732 141.677 103.796 141.736C104.103 142.775 105.144 145.653 106.988 150.242C107.662 151.958 108.46 154.405 109.501 157.526C110.542 160.646 111.34 162.787 111.772 164.073L113.611 169.092C114.344 171.357 115.266 173.191 116.372 174.66C116.495 174.976 115.633 174.852 115.142 174.852ZM102.14 159.617C101.526 157.841 101.159 156.679 100.976 156.249L99.0127 150.498L97.5405 153.865C96.9901 155.087 96.559 156.13 96.2517 157.05C95.9444 157.722 95.3941 159.374 95.2107 160.047L98.7054 159.864L102.14 159.617Z" fill="black"/>
<path d="M156.918 170.016C156.918 172.404 156.859 173.992 156.795 174.729C156.735 174.788 156.735 174.852 156.671 174.852H149.984C149.924 174.852 149.924 174.793 149.924 174.729C149.865 174.18 149.865 172.404 149.865 169.284V164.329V162.554C149.924 161.515 149.924 160.962 149.865 160.838C149.805 159.063 149.374 157.841 148.7 157.164C147.287 156.126 145.324 156.368 143.852 157.347C142.811 158.079 142.197 159.182 142.013 160.591C141.83 162.119 141.646 164.755 141.522 168.607C141.463 171.421 141.399 173.443 141.399 174.729C141.399 174.788 141.339 174.852 141.275 174.852H134.405C134.345 174.852 134.345 174.793 134.345 174.729C134.285 174.116 134.285 172.464 134.285 169.71V164.938V162C134.285 160.349 134.162 159.122 133.854 158.326C133.363 157.041 132.382 156.428 130.91 156.492C129.13 156.615 127.782 157.718 126.984 159.859C126.677 160.591 126.493 161.634 126.369 163.043C126.31 164.146 126.186 165.551 126.122 167.207L125.938 169.838C125.938 171.123 125.879 173.205 125.879 174.733C125.879 174.793 125.819 174.857 125.755 174.857H119.252C119.192 174.857 119.128 174.797 119.192 174.733C119.252 173.265 119.316 172.162 119.252 171.43C119.252 171.183 119.252 170.021 119.192 168.003C119.192 167.39 119.192 166.287 119.252 164.759C119.311 163.231 119.311 162.005 119.252 161.149L118.821 154.538C118.761 152.52 118.697 151.541 118.697 151.477C118.637 150.805 118.573 150.498 118.637 150.439C118.637 150.315 118.821 150.132 119.128 149.949C120.54 149.212 122.687 148.846 125.691 148.846C125.75 148.846 125.815 148.846 125.815 148.906C125.874 150.251 125.874 151.294 125.874 152.09C125.874 152.397 125.874 152.822 125.815 153.376C126.429 152.273 127.044 151.418 127.718 150.805C129.373 149.212 131.703 148.54 134.836 148.846C137.046 149.094 138.702 150.315 139.867 152.58C139.867 152.52 139.991 152.397 139.991 152.397C141.22 150.869 142.811 149.826 144.714 149.277C147.168 148.604 149.314 148.604 151.094 149.217C153.116 149.83 154.529 151.235 155.451 153.381C156.373 155.526 156.863 157.727 156.923 160.051C156.923 160.6 156.923 161.46 156.863 162.623C156.804 163.725 156.804 164.581 156.863 165.13C156.918 166.406 156.918 168.058 156.918 170.016Z" fill="black"/>
<path d="M183.051 174.729C183.051 174.788 182.991 174.852 182.927 174.852H179.552H176.24C176.181 174.852 176.117 174.793 176.117 174.729C176.057 173.443 176.057 172.404 176.057 171.668C176.057 171.361 176.057 170.995 176.117 170.565C175.259 171.974 174.278 173.013 173.172 173.809C171.76 174.729 170.228 175.218 168.508 175.401C166.362 175.584 164.582 175.154 163.234 174.116C161.514 172.894 160.473 171.055 159.923 168.607C159.432 166.159 159.372 164.933 159.189 162.243C159.129 161.813 159.189 160.042 159.248 156.917C159.308 155.998 159.308 155.142 159.248 154.47C159.248 153.431 159.308 150.919 159.308 150.37C159.308 150.311 159.308 150.247 159.368 150.247C161.574 149.327 163.844 148.837 166.114 148.837C166.174 148.837 166.174 148.837 166.174 148.897C166.174 149.752 166.174 151.221 166.297 152.017C166.297 152.937 166.238 154.648 166.238 155.627C166.178 156.789 166.178 158.871 166.238 161.749C166.238 163.034 166.238 163.277 166.421 164.686C166.605 166.402 167.279 167.564 168.815 168.053C169.98 168.36 171.269 168.053 172.681 167.257C174.094 166.461 175.076 165.299 175.502 163.83C175.809 162.911 175.993 161.323 176.052 159.058C176.112 157.773 176.112 154.895 176.112 150.37C176.112 150.311 176.112 150.247 176.172 150.247C178.378 149.327 180.529 148.837 182.675 148.837C182.735 148.837 182.799 148.837 182.799 148.897C182.799 151.221 182.799 153.486 182.739 155.691C182.68 159.301 182.68 162.792 182.863 166.155C182.991 168.182 183.051 171.059 183.051 174.729Z" fill="black"/>
<path d="M209 152.209C208.633 153.248 207.835 154.291 206.67 155.393C205.748 156.313 204.767 156.986 203.785 157.535C203.726 157.594 203.726 157.594 203.726 157.535C202.254 155.819 199.25 155.393 197.222 156.432C195.81 157.105 194.828 158.207 194.278 159.859C194.095 160.531 193.847 161.758 193.664 163.533C193.48 165.184 193.42 167.019 193.42 169.041C193.48 171.306 193.604 173.205 193.852 174.733C193.852 174.793 193.852 174.857 193.792 174.857C193.242 174.797 190.54 174.797 185.693 174.857C185.633 174.857 185.569 174.797 185.569 174.733C185.569 174.669 185.509 172.958 185.385 169.714C185.202 165.738 185.326 161.698 185.633 157.658C185.757 156.373 185.876 155.027 185.94 153.618C186.064 151.66 186.124 150.557 186.124 150.374C186.124 150.315 186.183 150.251 186.248 150.251C187.72 149.702 188.701 149.331 189.252 149.212C190.293 148.965 191.646 148.846 193.177 148.846C193.237 148.846 193.237 148.846 193.237 148.906C193.297 150.191 193.297 151.23 193.297 151.967V153.129C193.971 151.967 194.828 151.047 195.81 150.374C197.342 149.336 199.493 148.782 202.13 148.846C204.767 148.846 207.404 150.132 208.94 152.09C209 152.15 209 152.15 209 152.209Z" fill="black"/>
<path d="M62.8822 174.687C63.3959 178.338 74.4579 186.29 80.8236 173.662C84.5522 166.264 89.2119 174.733 89.2119 174.733C89.2119 174.733 84.355 188.248 70.8073 188.248C57.9612 188.248 54.8884 178.805 54.6499 174.619" fill="black"/>
<path d="M71.9628 180.621C77.4769 180.621 81.947 176.299 81.947 170.968C81.947 165.636 77.4769 161.314 71.9628 161.314C66.4486 161.314 61.9785 165.636 61.9785 170.968C61.9785 176.299 66.4486 180.621 71.9628 180.621Z" fill="white"/>
<path d="M63.5931 159.269C63.5931 159.269 60.3781 167.834 62.2355 173.141C63.4417 176.586 66.0329 162.641 66.0329 162.641L63.5931 159.269Z" fill="white"/>
<path d="M80.3418 176.224C80.3418 176.224 83.809 171.032 87.4964 159.959C84.8684 163.638 80.6949 171.434 80.6949 171.434L80.3418 176.224Z" fill="white"/>
<path d="M72.7013 176.275L71.6694 175.245C67.8307 171.86 65.322 169.577 65.322 166.777C65.322 164.494 67.0923 162.728 69.3809 162.728C70.6375 162.728 71.8895 163.318 72.7013 164.274C73.5131 163.318 74.7697 162.728 76.0217 162.728C78.3103 162.728 80.0806 164.494 80.0806 166.777C80.0806 169.577 77.5719 171.86 73.7332 175.245L72.7013 176.275Z" fill="#FF0000"/>
<path d="M96.0407 142.94C96.0407 142.94 86.7994 162.032 86.3912 163.13C85.9831 164.228 85.4832 158.697 85.4832 158.697L96.0407 142.94Z" fill="white"/>
<path d="M140.252 71.003C138.817 68.6148 140.133 66.7069 142.765 68.139C141.568 60.6218 135.588 50.5929 135.588 50.5929H138.101C138.101 50.5929 134.391 47.9667 131.758 44.1464C129.126 40.3261 136.904 8.81641 130.8 8.81641C124.7 8.81641 117.28 18.3649 112.134 24.9304C107.153 31.2808 100.609 30.3704 100.191 30.3063V30.3017C100.191 30.3017 100.187 30.3017 100.182 30.3017C100.177 30.3017 100.173 30.3017 100.173 30.3017V30.3063C99.7555 30.3704 93.2109 31.2854 88.2302 24.9304C83.0844 18.3649 75.6685 8.81641 69.5642 8.81641C63.4645 8.81641 71.2382 40.3261 68.6056 44.1464C65.9731 47.9667 62.2629 50.5929 62.2629 50.5929H64.7761C64.7761 50.5929 58.7957 60.6173 57.5986 68.139C60.2312 66.7069 61.5474 68.6148 60.1119 71.003C58.6764 73.3913 51.797 87.7118 61.9648 102.453C63.0425 98.514 63.1618 91.4727 63.1618 91.4727L64.8954 105.853L67.9957 100.5C67.9957 100.5 71.1189 118.622 88.9457 127.338C82.7221 118.416 85.7766 111.672 85.7766 111.672L93.6145 128.532L94.1235 121.102C94.1235 121.102 96.5955 127.667 100.173 131.73C100.173 131.739 100.173 131.748 100.173 131.758C100.177 131.753 100.182 131.748 100.182 131.744C100.187 131.748 100.191 131.753 100.191 131.758C100.191 131.748 100.191 131.739 100.191 131.73C103.768 127.672 106.24 121.102 106.24 121.102L106.749 128.532L114.587 111.672C114.587 111.672 117.637 118.416 111.418 127.338C129.245 118.627 132.368 100.5 132.368 100.5L135.469 105.853L137.202 91.4727C137.202 91.4727 137.321 98.514 138.399 102.453C148.567 87.7118 141.688 73.3867 140.252 71.003Z" fill="#353535"/>
<path d="M69.9495 3.33992C70.5182 4.65302 73.169 8.55112 74.0955 9.62173C75.6502 11.4244 73.4075 12.2708 76.0675 12.7558C76.118 12.7649 76.1639 12.7924 76.2097 12.829C73.8203 13.3185 70.5732 15.1623 68.2159 15.8578C68.1058 15.5604 67.5692 17.88 67.4637 17.6192C65.7255 13.2545 65.51 5.04191 67.2436 0C68.1104 2.74514 69.2707 5.321 70.0641 7.82823C70.2384 7.78248 69.8899 7.87399 70.0641 7.82823L69.9495 3.33992Z" fill="#353535"/>
<path d="M130.415 3.33992C129.846 4.65302 127.195 8.55112 126.269 9.62173C124.714 11.4244 126.956 12.2708 124.296 12.7558C124.246 12.7649 124.2 12.7924 124.154 12.829C126.544 13.3185 129.791 15.1623 132.148 15.8578C132.258 15.5604 132.795 17.88 132.9 17.6192C134.638 13.2545 134.854 5.04191 133.12 0C132.254 2.74514 131.093 5.321 130.3 7.82823C130.126 7.78248 130.474 7.87399 130.3 7.82823L130.415 3.33992Z" fill="#353535"/>
<path d="M73.976 9.48438C73.976 9.48438 74.93 10.7197 75.9068 11.4883C76.8837 12.257 74.5676 11.0262 74.5676 11.0262L73.2881 9.89157L73.976 9.48438Z" fill="#353535"/>
<path d="M126.388 9.48438C126.388 9.48438 125.434 10.7197 124.457 11.4883C123.48 12.257 125.796 11.0262 125.796 11.0262L127.076 9.89157L126.388 9.48438Z" fill="#353535"/>
<path d="M74.71 52.3544C74.71 52.3544 77.4021 50.1308 81.5893 49.655C84.6759 49.3027 88.377 49.3851 90.7114 53.4616C93.0458 57.5336 92.3991 61.6513 91.7616 63.1382C90.826 63.6918 90.1381 62.6853 90.0464 61.7885C89.9822 61.1572 90.161 59.7846 88.4228 59.8395C86.6847 59.8944 83.2633 60.5624 81.1399 57.3094C80.5116 56.5316 80.4153 53.6126 79.764 52.7067C79.1128 51.8008 78.1772 51.4028 74.71 52.3544Z" fill="black"/>
<path d="M89.9822 57.5016C89.3814 58.984 86.5975 59.9402 84.364 59.0343C82.1305 58.1284 81.2912 55.7036 81.892 54.2258C82.4928 52.7434 84.7951 52.2767 87.0286 53.1826C89.2621 54.0885 90.583 56.0193 89.9822 57.5016Z" fill="white"/>
<path d="M84.2309 52.7571C84.2309 52.7571 83.387 57.1951 85.4187 57.9683C87.4504 58.7415 90.1242 56.7375 90.1517 55.397C89.7298 54.7931 87.8815 52.327 84.2309 52.7571Z" fill="black"/>
<path d="M86.8178 30.5442C83.2863 24.999 77.5764 18.6486 76.0767 17.1113C74.5725 15.574 72.0271 13.7302 70.6741 14.9289C69.3212 16.1276 69.0231 20.7577 70.775 29.3683C72.1188 35.9704 72.926 37.1371 71.8482 41.3921C75.6089 42.4444 90.3492 36.0894 86.8178 30.5442Z" fill="white"/>
<path d="M125.654 52.3544C125.654 52.3544 122.962 50.1308 118.775 49.655C115.688 49.3027 111.987 49.3851 109.653 53.4616C107.318 57.5382 107.965 61.6513 108.602 63.1382C109.538 63.6918 110.226 62.6853 110.318 61.7885C110.382 61.1572 110.203 59.7846 111.941 59.8395C113.679 59.8944 117.101 60.5624 119.224 57.3094C119.852 56.5316 119.949 53.6126 120.6 52.7067C121.251 51.8008 122.187 51.4028 125.654 52.3544Z" fill="black"/>
<path d="M110.588 57.1675C111.148 58.5446 113.734 59.4368 115.812 58.595C117.89 57.7531 118.669 55.4975 118.11 54.1204C117.55 52.7432 115.408 52.3086 113.331 53.1504C111.258 53.9877 110.029 55.7903 110.588 57.1675Z" fill="white"/>
<path d="M115.954 52.7479C115.954 52.7479 116.67 56.5041 114.95 57.1584C113.23 57.8127 110.964 56.1198 110.941 54.9806C111.295 54.4727 112.863 52.3864 115.954 52.7479Z" fill="black"/>
<path d="M112.982 29.7802C116.871 23.6723 122.54 15.9081 124.196 14.2153C125.851 12.5224 128.085 10.6237 129.575 11.946C131.066 13.2682 131.396 18.1362 130.029 27.7168C128.663 37.2928 127.796 38.5327 127.961 41.2595C123.824 42.417 109.093 35.8928 112.982 29.7802Z" fill="white"/>
<path d="M87.0011 30.1509C87.0011 30.1509 78.5349 26.0331 76.6499 23.7043C80.1813 29.1352 83.1532 30.9561 85.0244 32.0313C78.5486 29.794 76.6499 28.3162 76.6499 28.3162C76.6499 28.3162 78.356 33.8202 81.1353 35.1653C83.9191 36.5059 78.7458 35.9706 77.6084 35.1653C79.4521 37.2105 79.9107 39.0406 84.208 38.7889C87.8404 36.8902 88.8631 32.6581 87.0011 30.1509Z" fill="#353535"/>
<path d="M111.088 30.1509C111.088 30.1509 119.554 26.0331 121.439 23.7043C117.908 29.1352 114.936 30.9561 113.065 32.0313C119.541 29.794 121.439 28.3162 121.439 28.3162C121.439 28.3162 119.733 33.8202 116.954 35.1653C114.17 36.5059 119.343 35.9706 120.481 35.1653C118.637 37.2105 118.178 39.0406 113.881 38.7889C110.249 36.8902 109.226 32.6581 111.088 30.1509Z" fill="#353535"/>
<path d="M117.637 66.7618C113.812 64.7944 103.067 69.9278 100.182 77.0972C97.2971 69.9278 86.547 64.7944 82.7266 66.7618C78.8971 68.7291 79.8969 77.5593 86.015 83.5026C87.7394 85.1771 89.8995 86.1333 92.0046 86.6686C92.5687 89.2765 96.3111 91.7654 100.118 91.8203V91.8249C100.141 91.8249 100.159 91.8203 100.182 91.8203C100.205 91.8203 100.223 91.8249 100.246 91.8249V91.8203C104.057 91.7654 107.8 89.2765 108.359 86.6686C110.464 86.1333 112.624 85.1771 114.349 83.5026C120.467 77.5639 121.467 68.7337 117.637 66.7618Z" fill="white"/>
<path d="M108.703 44.7275C107.644 39.5483 107.786 33.6417 108.795 32.2737C107.424 33.8384 107.694 38.2032 105.447 41.1359C102.92 44.4392 102.961 47.1569 102.961 47.1569L101.168 41.7215L100.177 45.6425L99.1867 41.7215L97.3934 47.1569C97.3934 47.1569 97.4347 44.4392 94.9077 41.1359C92.6604 38.2032 92.931 33.8384 91.5597 32.2737C92.5687 33.6417 92.7109 39.5483 91.6515 44.7275C90.537 50.1766 93.3851 51.3479 93.3851 51.3479C93.7611 50.291 93.1787 49.4491 92.9356 47.4497C92.6925 45.4504 93.2016 44 93.3851 42.6412C93.7611 42.902 94.5637 44.4072 95.2195 46.4615C95.8754 48.5158 96.9944 49.0191 97.6044 48.5844C98.0218 48.287 98.3107 46.672 99.0628 45.1347C99.2738 45.821 99.8058 46.8961 100.159 47.5733V47.6236C100.164 47.6145 100.168 47.6053 100.173 47.6007C100.177 47.6099 100.182 47.619 100.186 47.6236V47.5733C100.54 46.8961 101.072 45.821 101.283 45.1347C102.035 46.6674 102.324 48.287 102.741 48.5844C103.351 49.0191 104.465 48.5112 105.126 46.4615C105.786 44.4118 106.584 42.902 106.96 42.6412C107.144 44.0046 107.653 45.4504 107.41 47.4497C107.167 49.4491 106.584 50.291 106.96 51.3479C106.97 51.3479 109.818 50.172 108.703 44.7275Z" fill="black"/>
<path d="M100.457 68.5141C100.388 68.5599 100.292 68.5965 100.191 68.6148C100.095 68.5965 99.994 68.5645 99.9252 68.5141C98.4851 67.503 97.0267 67.8645 95.2151 68.5462C96.1553 68.9671 96.9212 69.2187 97.577 69.6351C98.1503 69.9965 98.7236 70.4769 99.0859 71.0351C99.517 71.6985 99.7371 72.5083 100.187 73.5926C100.636 72.5037 100.852 71.6985 101.287 71.0351C101.654 70.4723 102.223 69.9965 102.796 69.6351C103.452 69.2187 104.218 68.9717 105.158 68.5462C103.356 67.8645 101.897 67.503 100.457 68.5141Z" fill="#FF0000"/>
<path d="M108.96 81.3203C108.96 81.3203 102.494 80.3686 101.819 77.866C101.145 75.3587 101.342 71.7352 100.191 71.5979C99.0401 71.7306 99.0722 73.6385 98.4714 76.164C97.9532 78.3326 95.394 79.1104 92.9587 82.1621C96.0545 79.9477 97.9623 79.0876 100.182 79.0876C102.402 79.083 108.96 81.3203 108.96 81.3203Z" fill="#353535"/>
<path d="M75.2878 51.938C75.2878 51.938 66.9133 56.9159 58.6581 63.8703C58.2774 64.7716 57.8463 66.835 57.5986 68.139C58.4012 67.7409 58.6718 67.6037 59.667 67.5854C61.0383 67.5533 62.6068 66.4507 63.891 65.2749C69.5412 60.1186 76.7141 50.7027 79.2182 52.1577C81.704 51.0687 75.2878 51.938 75.2878 51.938Z" fill="black"/>
<path d="M60.0753 71.003C61.5108 68.6148 60.1945 66.7069 57.562 68.139C58.759 60.6218 64.7395 50.5929 64.7395 50.5929H62.2262C62.2262 50.5929 65.9365 47.9667 68.569 44.1464C71.2015 40.3261 63.4233 8.81641 69.5276 8.81641C75.6273 8.81641 83.0478 18.3649 88.1936 24.9304C93.1743 31.2808 99.7188 30.3704 100.136 30.3063V30.3017C100.136 30.3017 100.141 30.3017 100.145 30.3017C100.15 30.3017 100.155 30.3017 100.155 30.3017V30.3063C100.572 30.3704 107.116 31.2854 112.097 24.9304C117.243 18.3649 124.659 8.81641 130.763 8.81641C136.863 8.81641 129.089 40.3261 131.722 44.1464C134.354 47.9667 138.064 50.5929 138.064 50.5929H135.551C135.551 50.5929 141.532 60.6173 142.729 68.139C140.096 66.7069 138.78 68.6148 140.215 71.003C141.651 73.3913 148.53 87.7118 138.363 102.453C137.285 98.514 137.166 91.4727 137.166 91.4727L135.432 105.853L132.332 100.5C132.332 100.5 129.208 118.622 111.382 127.338C117.605 118.416 114.551 111.672 114.551 111.672L106.713 128.532L106.204 121.102C106.204 121.102 103.732 127.667 100.155 131.73C100.155 131.739 100.155 131.748 100.155 131.758C100.15 131.753 100.145 131.748 100.145 131.744C100.141 131.748 100.136 131.753 100.136 131.758C100.136 131.748 100.136 131.739 100.136 131.73C96.5589 127.672 94.0869 121.102 94.0869 121.102L93.5778 128.532L85.7399 111.672C85.7399 111.672 82.6901 118.416 88.909 127.338C71.0823 118.627 67.9591 100.5 67.9591 100.5L64.8587 105.853L63.1251 91.4727C63.1251 91.4727 63.0059 98.514 61.9281 102.453C51.7604 87.7118 58.6398 73.3867 60.0753 71.003Z" fill="#353535"/>
<path d="M130.378 3.33992C129.809 4.65302 127.158 8.55112 126.232 9.62173C124.677 11.4244 126.92 12.2708 124.26 12.7558C124.209 12.7649 124.164 12.7924 124.118 12.829C126.507 13.3185 129.754 15.1623 132.112 15.8578C132.222 15.5604 132.758 17.88 132.864 17.6192C134.602 13.2545 134.817 5.04191 133.084 0C132.217 2.74514 131.057 5.321 130.263 7.82823C130.089 7.78248 130.438 7.87399 130.263 7.82823L130.378 3.33992Z" fill="#353535"/>
<path d="M69.9129 3.33992C70.4816 4.65302 73.1324 8.55112 74.0588 9.62173C75.6136 11.4244 73.3709 12.2708 76.0309 12.7558C76.0814 12.7649 76.1272 12.7924 76.1731 12.829C73.7837 13.3185 70.5366 15.1623 68.1793 15.8578C68.0692 15.5604 67.5326 17.88 67.4271 17.6192C65.6889 13.2545 65.4734 5.04191 67.207 0C68.0738 2.74514 69.2341 5.321 70.0275 7.82823C70.2018 7.78248 69.8532 7.87399 70.0275 7.82823L69.9129 3.33992Z" fill="#353535"/>
<path d="M126.351 9.48438C126.351 9.48438 125.397 10.7197 124.42 11.4883C123.443 12.257 125.759 11.0262 125.759 11.0262L127.039 9.89157L126.351 9.48438Z" fill="#353535"/>
<path d="M73.9396 9.48438C73.9396 9.48438 74.8936 10.7197 75.8705 11.4883C76.8473 12.257 74.5313 11.0262 74.5313 11.0262L73.2517 9.89157L73.9396 9.48438Z" fill="#353535"/>
<path d="M125.617 52.3544C125.617 52.3544 122.925 50.1308 118.738 49.655C115.652 49.3027 111.95 49.3851 109.616 53.4616C107.282 57.5382 107.928 61.6513 108.566 63.1382C109.501 63.6918 110.189 62.6853 110.281 61.7885C110.345 61.1572 110.166 59.7846 111.905 59.8395C113.643 59.8944 117.064 60.5624 119.188 57.3094C119.816 56.5316 119.912 53.6126 120.563 52.7067C121.21 51.8008 122.146 51.4028 125.617 52.3544Z" fill="black"/>
<path d="M110.345 57.5016C110.946 58.984 113.73 59.9402 115.963 59.0343C118.197 58.1284 119.036 55.7036 118.435 54.2258C117.835 52.7434 115.532 52.2767 113.299 53.1826C111.065 54.0885 109.74 56.0193 110.345 57.5016Z" fill="white"/>
<path d="M116.096 52.7571C116.096 52.7571 116.94 57.1951 114.909 57.9683C112.877 58.7415 110.203 56.7375 110.176 55.397C110.593 54.7931 112.441 52.327 116.096 52.7571Z" fill="black"/>
<path d="M113.51 30.5442C117.041 24.999 122.751 18.6486 124.251 17.1113C125.755 15.574 128.3 13.7302 129.653 14.9289C131.006 16.1276 131.304 20.7577 129.552 29.3683C128.209 35.9704 127.401 37.1371 128.479 41.3921C124.718 42.4444 109.978 36.0894 113.51 30.5442Z" fill="white"/>
<path d="M74.6687 52.3544C74.6687 52.3544 77.3608 50.1308 81.5481 49.655C84.6346 49.3027 88.3357 49.3851 90.6701 53.4616C93.0045 57.5382 92.3579 61.6513 91.7204 63.1382C90.7848 63.6918 90.0969 62.6853 90.0051 61.7885C89.9409 61.1572 90.1198 59.7846 88.3816 59.8395C86.6434 59.8944 83.2221 60.5624 81.0986 57.3094C80.4703 56.5316 80.374 53.6126 79.7228 52.7067C79.0761 51.8008 78.1405 51.4028 74.6687 52.3544Z" fill="black"/>
<path d="M89.7345 57.1675C89.175 58.5446 86.5883 59.4368 84.5108 58.595C82.4332 57.7531 81.6535 55.4975 82.2131 54.1204C82.7726 52.7432 84.9144 52.3086 86.9873 53.1504C89.0649 53.9877 90.294 55.7903 89.7345 57.1675Z" fill="white"/>
<path d="M84.3731 52.7479C84.3731 52.7479 83.6577 56.5041 85.3775 57.1584C87.0974 57.8127 89.363 56.1198 89.3859 54.9806C89.0282 54.4727 87.4643 52.3864 84.3731 52.7479Z" fill="black"/>
<path d="M87.3451 29.7802C83.456 23.6723 77.7874 15.9081 76.1318 14.2153C74.4761 12.5224 72.2426 10.6237 70.7521 11.946C69.2616 13.2682 68.9313 18.1362 70.298 27.7168C71.6647 37.2928 72.5315 38.5327 72.3664 41.2595C76.5032 42.417 91.2343 35.8928 87.3451 29.7802Z" fill="white"/>
<path d="M113.326 30.1509C113.326 30.1509 121.793 26.0331 123.678 23.7043C120.146 29.1352 117.174 30.9561 115.303 32.0313C121.779 29.794 123.678 28.3162 123.678 28.3162C123.678 28.3162 121.971 33.8202 119.192 35.1653C116.408 36.5059 121.582 35.9706 122.719 35.1653C120.875 37.2105 120.417 39.0406 116.119 38.7889C112.487 36.8902 111.464 32.6581 113.326 30.1509Z" fill="#353535"/>
<path d="M89.2394 30.1509C89.2394 30.1509 80.7731 26.0331 78.8882 23.7043C82.4196 29.1352 85.3915 30.9561 87.2627 32.0313C80.7869 29.794 78.8882 28.3162 78.8882 28.3162C78.8882 28.3162 80.5943 33.8202 83.3735 35.1653C86.1574 36.5059 80.9841 35.9706 79.8467 35.1653C81.6904 37.2105 82.149 39.0406 86.4463 38.7889C90.0786 36.8902 91.1014 32.6581 89.2394 30.1509Z" fill="#353535"/>
<path d="M82.6856 66.7618C86.5105 64.7944 97.2561 69.9278 100.141 77.0972C103.026 69.9278 113.776 64.7944 117.596 66.7618C121.426 68.7291 120.426 77.5593 114.308 83.5026C112.583 85.1771 110.423 86.1333 108.318 86.6686C107.754 89.2765 104.012 91.7654 100.205 91.8203V91.8249C100.182 91.8249 100.164 91.8203 100.141 91.8203C100.118 91.8203 100.1 91.8249 100.077 91.8249V91.8203C96.2655 91.7654 92.5231 89.2765 91.9636 86.6686C89.8585 86.1333 87.6984 85.1771 85.974 83.5026C79.8559 77.5639 78.8561 68.7337 82.6856 66.7618Z" fill="white"/>
<path d="M91.6241 44.7275C92.6836 39.5483 92.5414 33.6417 91.5324 32.2737C92.9037 33.8384 92.6331 38.2032 94.8804 41.1359C97.4074 44.4392 97.3661 47.1569 97.3661 47.1569L99.1593 41.7215L100.15 45.6425L101.141 41.7215L102.934 47.1569C102.934 47.1569 102.893 44.4392 105.42 41.1359C107.667 38.2032 107.396 33.8384 108.768 32.2737C107.759 33.6417 107.616 39.5483 108.676 44.7275C109.79 50.1766 106.942 51.3479 106.942 51.3479C106.566 50.291 107.149 49.4491 107.392 47.4497C107.635 45.4504 107.126 44 106.942 42.6412C106.566 42.902 105.764 44.4072 105.108 46.4615C104.452 48.5158 103.333 49.0191 102.723 48.5844C102.306 48.287 102.017 46.672 101.264 45.1347C101.053 45.821 100.521 46.8961 100.168 47.5733V47.6236C100.164 47.6145 100.159 47.6053 100.155 47.6007C100.15 47.6099 100.145 47.619 100.141 47.6236V47.5733C99.7877 46.8961 99.2557 45.821 99.0447 45.1347C98.2925 46.6674 98.0036 48.287 97.5863 48.5844C96.9763 49.0191 95.8618 48.5112 95.2014 46.4615C94.541 44.4118 93.743 42.902 93.3669 42.6412C93.1835 44.0046 92.6744 45.4504 92.9175 47.4497C93.1605 49.4491 93.743 50.291 93.3669 51.3479C93.3531 51.3479 90.5097 50.172 91.6241 44.7275Z" fill="black"/>
<path d="M99.8701 68.5141C99.9389 68.5599 100.035 68.5965 100.136 68.6148C100.232 68.5965 100.333 68.5645 100.402 68.5141C101.842 67.503 103.301 67.8645 105.112 68.5462C104.172 68.9671 103.406 69.2187 102.75 69.6351C102.177 69.9965 101.604 70.4769 101.241 71.0351C100.81 71.6985 100.59 72.5083 100.141 73.5926C99.6912 72.5037 99.4757 71.6985 99.04 71.0351C98.6731 70.4723 98.1044 69.9965 97.5311 69.6351C96.8753 69.2187 96.1094 68.9717 95.1692 68.5462C96.967 67.8645 98.43 67.503 99.8701 68.5141Z" fill="#FF0000"/>
<path d="M91.3628 81.3203C91.3628 81.3203 97.8294 80.3686 98.5036 77.866C99.1778 75.3587 98.9805 71.7352 100.132 71.5979C101.283 71.7306 101.251 73.6385 101.852 76.164C102.37 78.3326 104.929 79.1104 107.364 82.1621C104.268 79.9477 102.361 79.0876 100.141 79.0876C97.9257 79.083 91.3628 81.3203 91.3628 81.3203Z" fill="#353535"/>
<path d="M125.035 51.938C125.035 51.938 133.409 56.9159 141.665 63.8703C142.045 64.7716 142.476 66.835 142.724 68.139C141.921 67.7409 141.651 67.6037 140.656 67.5854C139.284 67.5533 137.716 66.4507 136.432 65.2749C130.781 60.1186 123.609 50.7027 121.104 52.1577C118.623 51.0687 125.035 51.938 125.035 51.938Z" fill="black"/>
</svg>
