<svg width="163" height="66" viewBox="0 0 163 66" fill="none" xmlns="http://www.w3.org/2000/svg">
<path d="M66.0249 39.2772C65.9941 39.3081 65.994 39.3434 65.9587 39.3434H62.7286H53.3296C53.2987 39.3434 53.2634 39.3125 53.2634 39.2772C53.3296 37.0796 53.3296 35.6588 53.2943 34.9792C53.2943 34.8159 53.2634 34.3658 53.2281 33.6201L53.131 31.908V30.5224C53.1619 29.909 53.1619 29.4545 53.1619 29.1677C53.131 26.648 53.131 25.3551 53.0957 25.3242V23.8724V22.9987C53.0957 22.7383 53.0957 22.5795 53.1266 22.5442C53.1928 22.478 53.3516 22.3809 53.6429 22.2838C53.8679 22.1868 54.1592 22.1206 54.4813 22.0588C55.1609 21.8955 55.9993 21.8337 57.001 21.8337C57.0318 21.8337 57.0318 21.8646 57.0318 21.8999C57.0318 22.3191 57.0009 23.7091 56.9348 26.0655C56.9039 27.6144 56.9039 28.8764 56.9348 29.8119C57.0318 31.5902 57.0627 32.7508 57.0627 33.2362C57.0627 33.5274 57.0627 33.9466 57.0318 34.4629V34.9792C57.0318 35.2704 57.0318 35.3984 57.0318 35.3984C57.0009 35.3675 57.0627 35.3675 57.1598 35.3675H57.354H57.8703C58.3556 35.3984 58.8719 35.3984 59.4544 35.3675H66.2412C66.272 35.3675 66.3074 35.3984 66.3074 35.4337C66.3162 37.2738 66.2191 38.5667 66.0249 39.2772Z" fill="black"/>
<path d="M80.5645 32.0758C80.5645 32.4332 80.5336 32.7862 80.4983 33.1436C80.11 35.9545 78.2699 38.4742 75.684 39.3479C74.4264 39.798 73.0673 39.798 71.6464 39.3479C70.2255 38.9287 69.1576 38.1212 68.4472 36.9562C66.9292 34.2733 67.3175 31.2373 69.0296 28.7486C69.8681 27.5527 71.0021 26.679 72.3877 26.1318C73.9366 25.5185 75.3928 25.4523 76.7166 25.8715C79.2054 26.679 80.4983 29.6488 80.5645 32.0758ZM75.1368 28.8765C73.8439 28.5191 72.6834 29.459 71.9376 30.7519C71.1963 32.0758 71.033 33.4349 71.4213 34.7896C71.6155 35.5 71.9376 35.9854 72.3568 36.2105C72.904 36.5679 73.5836 36.5326 74.3602 36.1796C75.5252 35.6324 76.2974 34.4983 76.7166 32.7862C77.074 31.105 76.6548 29.2957 75.1368 28.8765Z" fill="black"/>
<path d="M94.2308 27.3894C94.0367 27.941 93.6175 28.4882 93.0041 29.0707C92.5187 29.5561 92.0024 29.9091 91.4861 30.2003C91.4552 30.2312 91.4552 30.2312 91.4552 30.2003C90.6786 29.2957 89.0989 29.0707 88.031 29.6179C87.2896 29.9753 86.7734 30.5533 86.4821 31.4271C86.385 31.7801 86.2571 32.4287 86.16 33.3642C86.0629 34.238 86.032 35.2043 86.032 36.2722C86.0629 37.4681 86.1291 38.4697 86.2571 39.2773C86.2571 39.3082 86.2571 39.3435 86.2262 39.3435C85.9349 39.3126 84.5141 39.3126 81.9635 39.3435C81.9326 39.3435 81.8973 39.3126 81.8973 39.2773C81.8973 39.242 81.8664 38.3418 81.8002 36.6296C81.7032 34.5292 81.7693 32.3979 81.9282 30.2665C81.9944 29.587 82.0562 28.8765 82.0915 28.1352C82.1577 27.1026 82.1886 26.5201 82.1886 26.4231C82.1886 26.3922 82.2194 26.3569 82.2547 26.3569C83.0314 26.0656 83.5477 25.8715 83.8389 25.8053C84.3905 25.6773 85.1009 25.6111 85.9085 25.6111C85.9394 25.6111 85.9394 25.6111 85.9394 25.642C85.9702 26.3216 85.9702 26.8687 85.9702 27.2571V27.8704C86.3277 27.2571 86.7778 26.7717 87.2941 26.4186C88.1016 25.8715 89.2312 25.5802 90.6212 25.6111C92.0112 25.6111 93.4013 26.2907 94.2088 27.3232C94.2308 27.3585 94.2308 27.3585 94.2308 27.3894Z" fill="black"/>
<path d="M113.744 39.3434H111.644H109.544C109.513 39.3434 109.513 39.3434 109.513 39.3125L108.996 37.5342L108.511 35.7558C108.383 35.4028 108.22 34.9174 107.995 34.3658C106.411 34.4629 104.376 34.5291 101.923 34.6262C101.565 35.5617 101.212 36.4045 100.921 37.212C100.793 37.6312 100.242 38.7962 100.083 39.3125C100.052 39.3434 100.052 39.3434 100.017 39.3434H95.4626C95.3964 39.3434 95.3964 39.3125 95.4317 39.2463C95.5597 38.955 95.9833 38.0196 96.2083 37.6312C96.4996 37.1458 96.7908 36.5325 97.1438 35.8529L98.2426 33.4965C98.728 32.4287 99.1163 31.6564 99.3723 31.171C99.9194 30.1032 100.921 28.166 101.442 27.0363C101.667 26.52 102.249 25.3242 102.51 24.8388C102.704 24.4196 102.898 24.0004 103.092 23.643C103.189 23.3826 103.317 23.1576 103.414 22.9325C103.542 22.7075 103.639 22.5751 103.67 22.5442C103.736 22.478 103.931 22.3809 104.284 22.2838C104.575 22.1868 104.897 22.1206 105.254 22.0279C105.996 21.8999 106.839 21.8337 107.708 21.8337C107.739 21.8337 107.739 21.8337 107.774 21.8646C107.937 22.4118 108.485 23.9342 109.455 26.3568C109.808 27.2614 110.232 28.5543 110.779 30.2002C111.326 31.8462 111.75 32.9802 111.975 33.6554L112.946 36.303C113.334 37.4989 113.819 38.4697 114.398 39.2419C114.455 39.4051 114 39.3434 113.744 39.3434ZM106.896 31.299C106.574 30.3635 106.38 29.7501 106.283 29.5207L105.25 26.4847L104.473 28.2631C104.182 28.9073 103.957 29.4589 103.794 29.9443C103.631 30.3017 103.344 31.171 103.247 31.5285L105.087 31.4314L106.896 31.299Z" fill="black"/>
<path d="M135.746 36.7883C135.746 38.0503 135.715 38.8887 135.68 39.2771C135.649 39.308 135.649 39.3433 135.614 39.3433H132.092C132.062 39.3433 132.062 39.3124 132.062 39.2771C132.031 38.9858 132.031 38.0503 132.031 36.4V33.7877V32.8522C132.062 32.305 132.062 32.0138 132.031 31.9476C132 31.0121 131.77 30.3634 131.417 30.0104C130.676 29.4588 129.639 29.5912 128.867 30.1075C128.315 30.4958 127.993 31.0783 127.896 31.8196C127.799 32.6271 127.702 34.0171 127.636 36.0514C127.605 37.5385 127.569 38.6019 127.569 39.2815C127.569 39.3124 127.539 39.3477 127.503 39.3477H123.885C123.854 39.3477 123.854 39.3168 123.854 39.2815C123.823 38.9594 123.823 38.0856 123.823 36.6339V34.1142V32.5653C123.823 31.6916 123.757 31.0474 123.598 30.6282C123.338 29.9486 122.821 29.6265 122.049 29.6574C121.114 29.7236 120.403 30.3016 119.98 31.4357C119.816 31.824 119.719 32.3712 119.657 33.1169C119.627 33.6994 119.56 34.4407 119.53 35.3145L119.432 36.7045C119.432 37.384 119.402 38.4828 119.402 39.2903C119.402 39.3212 119.371 39.3565 119.335 39.3565H115.911C115.88 39.3565 115.845 39.3256 115.88 39.2903C115.911 38.5137 115.946 37.9312 115.911 37.5473C115.911 37.4193 115.911 36.806 115.88 35.7381C115.88 35.4159 115.88 34.8335 115.911 34.0259C115.942 33.2184 115.942 32.5742 115.911 32.1197L115.686 28.6292C115.655 27.5613 115.62 27.045 115.62 27.0142C115.589 26.6567 115.554 26.4979 115.589 26.4626C115.589 26.3964 115.686 26.2993 115.849 26.2066C116.591 25.8183 117.725 25.6241 119.304 25.6241C119.335 25.6241 119.371 25.6241 119.371 25.655C119.402 26.3655 119.402 26.9171 119.402 27.3363C119.402 27.4995 119.402 27.7246 119.371 28.0158C119.693 27.4334 120.015 26.9833 120.372 26.6567C121.246 25.8183 122.473 25.4609 124.119 25.6241C125.284 25.7521 126.153 26.4008 126.766 27.5966C126.766 27.5657 126.833 27.4995 126.833 27.4995C127.477 26.692 128.32 26.1448 129.321 25.8536C130.614 25.4962 131.744 25.4962 132.679 25.8227C133.747 26.1448 134.489 26.8906 134.974 28.0202C135.459 29.1499 135.715 30.3149 135.751 31.5416C135.751 31.8328 135.751 32.2829 135.72 32.9007C135.689 33.4832 135.689 33.9333 135.72 34.2245C135.746 34.882 135.746 35.7557 135.746 36.7883Z" fill="black"/>
<path d="M149.505 39.2773C149.505 39.3082 149.474 39.3435 149.439 39.3435H147.66H145.917C145.887 39.3435 145.851 39.3126 145.851 39.2773C145.82 38.5977 145.82 38.0505 145.82 37.6622C145.82 37.499 145.82 37.3048 145.851 37.0797C145.397 37.8211 144.88 38.3727 144.302 38.7919C143.561 39.2773 142.754 39.5332 141.849 39.6303C140.719 39.7274 139.779 39.5023 139.069 38.9507C138.164 38.3065 137.617 37.3357 137.326 36.0428C137.066 34.7498 137.035 34.1056 136.938 32.6847C136.907 32.4596 136.938 31.5197 136.968 29.8738C136.999 29.3884 136.999 28.9383 136.968 28.5809C136.968 28.0337 136.999 26.7055 136.999 26.4142C136.999 26.3833 136.999 26.348 137.03 26.348C138.195 25.8626 139.387 25.6067 140.582 25.6067C140.613 25.6067 140.613 25.6067 140.613 25.6376C140.613 26.0921 140.613 26.8643 140.68 27.2835C140.68 27.7689 140.649 28.6735 140.649 29.1898C140.618 29.8032 140.618 30.902 140.649 32.4199C140.649 33.0995 140.649 33.2275 140.746 33.9688C140.843 34.8734 141.196 35.4868 142.008 35.7471C142.621 35.9104 143.301 35.7471 144.042 35.3279C144.783 34.9087 145.3 34.2953 145.529 33.5187C145.692 33.0333 145.789 32.1949 145.82 30.999C145.851 30.3195 145.851 28.8015 145.851 26.4098C145.851 26.3789 145.851 26.3436 145.882 26.3436C147.047 25.8582 148.177 25.6023 149.306 25.6023C149.337 25.6023 149.373 25.6023 149.373 25.6332C149.373 26.8599 149.373 28.0558 149.342 29.2207C149.311 31.127 149.311 32.9671 149.408 34.7454C149.474 35.8221 149.505 37.3401 149.505 39.2773Z" fill="black"/>
<path d="M163.17 27.3894C162.976 27.941 162.557 28.4882 161.944 29.0707C161.458 29.5561 160.942 29.9091 160.426 30.2003C160.395 30.2312 160.395 30.2312 160.395 30.2003C159.618 29.2957 158.038 29.0707 156.97 29.6179C156.229 29.9753 155.713 30.5533 155.422 31.4271C155.324 31.7801 155.197 32.4287 155.099 33.3642C155.002 34.238 154.971 35.2043 154.971 36.2722C155.002 37.4681 155.069 38.4697 155.197 39.2773C155.197 39.3082 155.197 39.3435 155.166 39.3435C154.874 39.3126 153.453 39.3126 150.903 39.3435C150.872 39.3435 150.837 39.3126 150.837 39.2773C150.837 39.242 150.806 38.3418 150.74 36.6296C150.643 34.5292 150.709 32.3979 150.868 30.2665C150.934 29.587 150.996 28.8765 151.031 28.1352C151.097 27.1026 151.128 26.5201 151.128 26.4231C151.128 26.3922 151.159 26.3569 151.194 26.3569C151.971 26.0656 152.487 25.8715 152.778 25.8053C153.33 25.6773 154.04 25.6111 154.848 25.6111C154.879 25.6111 154.879 25.6111 154.879 25.642C154.91 26.3216 154.91 26.8687 154.91 27.2571V27.8704C155.267 27.2571 155.717 26.7717 156.234 26.4186C157.041 25.8715 158.171 25.5802 159.561 25.6111C160.951 25.6111 162.341 26.2907 163.148 27.3232C163.17 27.3585 163.17 27.3585 163.17 27.3894Z" fill="black"/>
<path d="M86.2171 39.2553C86.4862 41.1836 92.3154 45.3801 95.6647 38.7125C97.6283 34.8072 100.082 39.2773 100.082 39.2773C100.082 39.2773 97.5224 46.4127 90.3915 46.4127C83.6268 46.4127 82.0073 41.4263 81.8838 39.2155" fill="black"/>
<path d="M91.0051 42.3882C93.9101 42.3882 96.265 40.1063 96.265 37.2915C96.265 34.4767 93.9101 32.1948 91.0051 32.1948C88.1001 32.1948 85.7451 34.4767 85.7451 37.2915C85.7451 40.1063 88.1001 42.3882 91.0051 42.3882Z" fill="white"/>
<path d="M86.593 31.1182C86.593 31.1182 84.8985 35.6412 85.8781 38.4433C86.5135 40.2613 87.8771 32.9009 87.8771 32.9009L86.593 31.1182Z" fill="white"/>
<path d="M95.4141 40.0671C95.4141 40.0671 97.2409 37.3268 99.1825 31.48C97.7969 33.4216 95.5994 37.5386 95.5994 37.5386L95.4141 40.0671Z" fill="white"/>
<path d="M91.3935 40.0934L90.8507 39.5507C88.8297 37.7635 87.5059 36.5588 87.5059 35.0806C87.5059 33.8759 88.4369 32.9404 89.646 32.9404C90.3079 32.9404 90.9698 33.2493 91.3935 33.7568C91.8215 33.2493 92.4834 32.9404 93.1409 32.9404C94.3456 32.9404 95.2811 33.8715 95.2811 35.0806C95.2811 36.5588 93.9572 37.7635 91.9362 39.5507L91.3935 40.0934Z" fill="#FF0000"/>
<path d="M103.683 22.4956C103.683 22.4956 98.8158 32.5742 98.5996 33.1567C98.3834 33.7392 98.123 30.8136 98.123 30.8136L103.683 22.4956Z" fill="white"/>
<path d="M41.6015 35.5925C40.8911 34.4055 41.5442 33.4612 42.8459 34.1716C42.2546 30.4385 39.2893 25.4609 39.2893 25.4609H40.5336C40.5336 25.4609 38.698 24.1592 37.3918 22.2617C36.09 20.3642 39.9379 4.72119 36.9196 4.72119C33.8969 4.72119 30.2256 9.46044 27.675 12.7214C25.2083 15.8765 21.965 15.422 21.762 15.3911H21.7576H21.7532C21.5458 15.422 18.3024 15.8765 15.8401 12.7214C13.294 9.46044 9.61821 4.72119 6.59551 4.72119C3.5728 4.72119 7.4251 20.3642 6.12335 22.2617C4.8216 24.1592 2.9815 25.4609 2.9815 25.4609H4.22588C4.22588 25.4609 1.26495 30.4385 0.669239 34.1716C1.97099 33.4612 2.62407 34.4099 1.91362 35.5925C1.20318 36.7795 -2.20343 43.8884 2.83147 51.2091C3.3654 49.2542 3.42277 45.7594 3.42277 45.7594L4.28325 52.8992L5.81887 50.2427C5.81887 50.2427 7.36773 59.2402 16.1931 63.5647C13.1131 59.1343 14.6222 55.7851 14.6222 55.7851L18.5054 64.156L18.7569 60.4669C18.7569 60.4669 19.9837 63.7279 21.7532 65.7445C21.7532 65.749 21.7532 65.7534 21.7532 65.7578L21.7576 65.7534L21.762 65.7578C21.762 65.7534 21.762 65.749 21.762 65.7445C23.5359 63.7279 24.7582 60.4669 24.7582 60.4669L25.0097 64.156L28.8929 55.7851C28.8929 55.7851 30.4021 59.1343 27.322 63.5647C36.1518 59.2402 37.6963 50.2427 37.6963 50.2427L39.2319 52.8992L40.0924 45.7594C40.0924 45.7594 40.1497 49.2542 40.6837 51.2091C45.7186 43.8884 42.312 36.7751 41.6015 35.5925Z" fill="#353535"/>
<path d="M6.78072 1.99855C7.06313 2.65163 8.37371 4.5844 8.83263 5.11834C9.60485 6.01412 8.49285 6.43332 9.80784 6.67161C9.83431 6.67602 9.85638 6.68926 9.87844 6.70691C8.69583 6.94961 7.0852 7.86745 5.91583 8.21164C5.86287 8.06602 5.5937 9.21774 5.54516 9.08536C4.68468 6.91872 4.57878 2.84138 5.43484 0.334961C5.86287 1.69849 6.44094 2.97817 6.82926 4.22256C6.91751 4.20049 6.741 4.24462 6.82926 4.22256L6.78072 1.99855Z" fill="#353535"/>
<path d="M36.7296 1.99855C36.4471 2.65163 35.1366 4.5844 34.6776 5.11834C33.9054 6.01412 35.0174 6.43332 33.7024 6.67161C33.676 6.67602 33.6539 6.68926 33.6318 6.70691C34.8144 6.94961 36.4251 7.86745 37.5945 8.21164C37.6474 8.06602 37.9166 9.21774 37.9651 9.08536C38.8256 6.91872 38.9315 2.84138 38.0754 0.334961C37.6474 1.69849 37.0693 2.97817 36.681 4.22256C36.5928 4.20049 36.7693 4.24462 36.681 4.22256L36.7296 1.99855Z" fill="#353535"/>
<path d="M8.77533 5.04785C8.77533 5.04785 9.24749 5.66122 9.73288 6.04071C10.2139 6.42462 9.07098 5.81125 9.07098 5.81125L8.43555 5.24642L8.77533 5.04785Z" fill="#353535"/>
<path d="M34.7349 5.04785C34.7349 5.04785 34.2627 5.66122 33.7773 6.04071C33.2964 6.42462 34.4392 5.81125 34.4392 5.81125L35.0747 5.24642L34.7349 5.04785Z" fill="#353535"/>
<path d="M9.1377 26.3345C9.1377 26.3345 10.4703 25.2313 12.5443 24.993C14.0755 24.8165 15.9068 24.8607 17.0629 26.8817C18.219 28.9027 17.9013 30.9502 17.5836 31.6871C17.1203 31.9607 16.7805 31.4621 16.732 31.0164C16.7011 30.7031 16.7893 30.0235 15.9289 30.05C15.0684 30.0765 13.3739 30.4074 12.3237 28.7924C12.0104 28.4085 11.9662 26.9567 11.6441 26.5066C11.322 26.0565 10.8587 25.8623 9.1377 26.3345Z" fill="black"/>
<path d="M16.701 28.8897C16.401 29.6266 15.0242 30.0987 13.9166 29.6531C12.809 29.203 12.3942 27.9983 12.6943 27.2658C12.9943 26.5333 14.1328 26.2994 15.236 26.7495C16.348 27.1952 17.0011 28.1527 16.701 28.8897Z" fill="white"/>
<path d="M13.8542 26.5333C13.8542 26.5333 13.435 28.7352 14.4411 29.1192C15.4472 29.5031 16.771 28.5102 16.7842 27.8395C16.5768 27.5438 15.6634 26.3215 13.8542 26.5333Z" fill="black"/>
<path d="M15.1343 15.5058C13.3869 12.7523 10.5583 9.59719 9.81257 8.83821C9.06683 8.07481 7.8092 7.16138 7.13847 7.75268C6.46774 8.3484 6.32212 10.6474 7.19142 14.9233C7.85774 18.202 8.25489 18.78 7.72536 20.8937C9.58311 21.4144 16.8817 18.2593 15.1343 15.5058Z" fill="white"/>
<path d="M34.3689 26.3345C34.3689 26.3345 33.0362 25.2313 30.9623 24.993C29.4311 24.8165 27.5998 24.8607 26.4437 26.8817C25.2875 28.9027 25.6052 30.9502 25.923 31.6871C26.3863 31.9607 26.7261 31.4621 26.7746 31.0164C26.8055 30.7031 26.7172 30.0235 27.5777 30.05C28.4382 30.0765 30.1327 30.4074 31.1829 28.7924C31.4962 28.4085 31.5403 26.9567 31.8625 26.5066C32.189 26.0565 32.6523 25.8623 34.3689 26.3345Z" fill="black"/>
<path d="M26.9073 28.7218C27.1853 29.4058 28.465 29.8471 29.4931 29.4279C30.5213 29.0087 30.9096 27.8923 30.6316 27.2083C30.3536 26.5243 29.2945 26.3081 28.2664 26.7273C27.2426 27.1465 26.6337 28.0379 26.9073 28.7218Z" fill="white"/>
<path d="M29.5635 26.5289C29.5635 26.5289 29.9165 28.3955 29.0648 28.7176C28.2132 29.0441 27.0923 28.2013 27.0791 27.6365C27.26 27.3849 28.0322 26.348 29.5635 26.5289Z" fill="black"/>
<path d="M28.0947 15.1264C30.023 12.0949 32.8295 8.23817 33.6503 7.39976C34.471 6.56134 35.5786 5.61702 36.3155 6.27451C37.0525 6.93201 37.2157 9.35017 36.5406 14.1027C35.8654 18.8551 35.433 19.4729 35.5168 20.8276C33.4649 21.4013 26.1663 18.1624 28.0947 15.1264Z" fill="white"/>
<path d="M15.2272 15.3118C15.2272 15.3118 11.0351 13.2687 10.0996 12.1125C11.847 14.8087 13.3209 15.7133 14.2476 16.2473C11.0395 15.1353 10.0996 14.4027 10.0996 14.4027C10.0996 14.4027 10.9424 17.1342 12.3236 17.8005C13.7004 18.4668 11.141 18.2021 10.5762 17.8005C11.4896 18.8154 11.7147 19.7245 13.846 19.6009C15.642 18.6566 16.1494 16.5561 15.2272 15.3118Z" fill="#353535"/>
<path d="M27.1551 15.3118C27.1551 15.3118 31.3472 13.2687 32.2827 12.1125C30.5353 14.8087 29.0614 15.7133 28.1348 16.2473C31.3428 15.1353 32.2827 14.4027 32.2827 14.4027C32.2827 14.4027 31.4399 17.1342 30.0587 17.8005C28.6775 18.4668 31.2413 18.2021 31.8061 17.8005C30.8927 18.8154 30.6677 19.7245 28.5363 19.6009C26.7403 18.6566 26.2329 16.5561 27.1551 15.3118Z" fill="#353535"/>
<path d="M30.4023 33.4876C28.5092 32.5124 23.1875 35.0585 21.7578 38.6196C20.328 35.0585 15.0063 32.5124 13.1133 33.4876C11.2158 34.4672 11.71 38.849 14.7416 41.7967C15.5976 42.6307 16.6655 43.1029 17.7069 43.3676C17.9849 44.665 19.8382 45.9005 21.7269 45.927V45.9314C21.7357 45.9314 21.7489 45.9314 21.7578 45.9314C21.7666 45.9314 21.7798 45.9314 21.7886 45.9314V45.927C23.6773 45.9005 25.5306 44.665 25.8086 43.3676C26.8544 43.1029 27.9223 42.6263 28.774 41.7967C31.8011 38.849 32.2953 34.4672 30.4023 33.4876Z" fill="white"/>
<path d="M25.9764 22.544C25.4513 19.9714 25.5219 17.0414 26.0205 16.3618C25.341 17.1385 25.4778 19.3051 24.3614 20.7613C23.1082 22.4028 23.1302 23.7531 23.1302 23.7531L22.2433 21.0525L21.7535 22.9985L21.2636 21.0525L20.3767 23.7531C20.3767 23.7531 20.3987 22.4028 19.1455 20.7613C18.0335 19.3051 18.1659 17.1385 17.4864 16.3618C17.985 17.0414 18.0556 19.9758 17.5305 22.544C16.9789 25.249 18.3866 25.8315 18.3866 25.8315C18.5719 25.3064 18.2851 24.8872 18.1615 23.8943C18.0424 22.9015 18.2939 22.1822 18.3866 21.507C18.5719 21.635 18.969 22.3852 19.2956 23.4045C19.6221 24.4238 20.1737 24.6754 20.4782 24.4591C20.6856 24.3091 20.8268 23.5104 21.2019 22.747C21.3078 23.0868 21.5725 23.6207 21.7446 23.9561V23.9826C21.7446 23.9782 21.749 23.9737 21.749 23.9693C21.749 23.9737 21.7535 23.9782 21.7535 23.9826V23.9561C21.93 23.6207 22.1903 23.0868 22.2962 22.747C22.6669 23.5104 22.8125 24.3091 23.0199 24.4591C23.32 24.6754 23.876 24.4238 24.2025 23.4045C24.529 22.3852 24.9262 21.6394 25.1115 21.507C25.1998 22.1822 25.4557 22.9015 25.3322 23.8943C25.213 24.8872 24.9218 25.3064 25.1115 25.8315C25.1159 25.8315 26.528 25.249 25.9764 22.544Z" fill="black"/>
<path d="M21.8901 34.3569C21.8548 34.379 21.8063 34.3966 21.7577 34.4055C21.7092 34.3966 21.6606 34.379 21.6253 34.3569C20.9105 33.8539 20.1868 34.0348 19.291 34.3746C19.7588 34.5864 20.1338 34.7099 20.4604 34.9129C20.7472 35.0938 21.0296 35.3321 21.2105 35.6101C21.4268 35.9411 21.5327 36.3426 21.7533 36.881C21.9739 36.3426 22.0843 35.9411 22.2961 35.6101C22.477 35.3321 22.7594 35.0938 23.0462 34.9129C23.3728 34.7055 23.7523 34.582 24.2156 34.3746C23.3286 34.0348 22.605 33.8539 21.8901 34.3569Z" fill="#FF0000"/>
<path d="M26.1039 40.7157C26.1039 40.7157 22.9003 40.2435 22.5694 38.9991C22.234 37.7548 22.3311 35.9544 21.7618 35.8882C21.1926 35.9544 21.2058 36.9031 20.9102 38.1563C20.6542 39.233 19.3878 39.6169 18.1787 41.1349C19.7099 40.0361 20.6587 39.6081 21.7574 39.6081C22.8562 39.6081 26.1039 40.7157 26.1039 40.7157Z" fill="#353535"/>
<path d="M9.42427 26.1272C9.42427 26.1272 5.27632 28.5984 1.19015 32.0491C1.0004 32.4992 0.788595 33.5229 0.665039 34.1672C1.06218 33.9686 1.19456 33.9024 1.68879 33.8892C2.36834 33.876 3.14498 33.3244 3.78041 32.7419C6.57807 30.1825 10.1303 25.505 11.3703 26.2287C12.6014 25.6948 9.42427 26.1272 9.42427 26.1272Z" fill="black"/>
<path d="M1.88726 35.5925C2.5977 34.4055 1.94462 33.4612 0.642871 34.1716C1.23417 30.4385 4.19951 25.4609 4.19951 25.4609H2.95513C2.95513 25.4609 4.79082 24.1592 6.09698 22.2617C7.40314 20.3642 3.55085 4.72119 6.56914 4.72119C9.59184 4.72119 13.2632 9.46044 15.8138 12.7214C18.2805 15.8765 21.5238 15.422 21.7268 15.3911H21.7312H21.7356C21.943 15.422 25.1864 15.8765 27.6486 12.7214C30.1948 9.46044 33.8706 4.72119 36.8933 4.72119C39.916 4.72119 36.0637 20.3642 37.3654 22.2617C38.6672 24.1592 40.5073 25.4609 40.5073 25.4609H39.2629C39.2629 25.4609 42.2238 30.4385 42.8195 34.1716C41.5178 33.4612 40.8647 34.4099 41.5752 35.5925C42.2856 36.7795 45.6922 43.8884 40.6573 51.2091C40.1234 49.2542 40.066 45.7594 40.066 45.7594L39.2055 52.8992L37.6699 50.2427C37.6699 50.2427 36.121 59.2402 27.2956 63.5647C30.3757 59.1343 28.8666 55.7851 28.8666 55.7851L24.9834 64.156L24.7318 60.4669C24.7318 60.4669 23.5051 63.7279 21.7356 65.7445C21.7356 65.749 21.7356 65.7534 21.7356 65.7578L21.7312 65.7534L21.7268 65.7578C21.7268 65.7534 21.7268 65.749 21.7268 65.7445C19.9529 63.7279 18.7306 60.4669 18.7306 60.4669L18.479 64.156L14.5959 55.7851C14.5959 55.7851 13.0867 59.1343 16.1668 63.5647C7.33695 59.2402 5.7925 50.2427 5.7925 50.2427L4.25688 52.8992L3.3964 45.7594C3.3964 45.7594 3.33904 49.2542 2.8051 51.2091C-2.2298 43.8884 1.17681 36.7751 1.88726 35.5925Z" fill="#353535"/>
<path d="M36.7081 1.99855C36.4257 2.65163 35.1151 4.5844 34.6562 5.11834C33.8839 6.01412 34.9959 6.43332 33.681 6.67161C33.6545 6.67602 33.6324 6.68926 33.6104 6.70691C34.793 6.94961 36.4036 7.86745 37.573 8.21164C37.6259 8.06602 37.8951 9.21774 37.9436 9.08536C38.8041 6.91872 38.91 2.84138 38.054 0.334961C37.6259 1.69849 37.0479 2.97817 36.6595 4.22256C36.5713 4.20049 36.7478 4.24462 36.6595 4.22256L36.7081 1.99855Z" fill="#353535"/>
<path d="M6.75923 1.99855C7.04165 2.65163 8.35222 4.5844 8.81114 5.11834C9.58337 6.01412 8.47136 6.43332 9.78635 6.67161C9.81283 6.67602 9.83489 6.68926 9.85696 6.70691C8.67435 6.94961 7.06371 7.86745 5.89434 8.21164C5.84139 8.06602 5.57222 9.21774 5.52368 9.08536C4.6632 6.91872 4.55729 2.84138 5.41336 0.334961C5.84139 1.69849 6.41945 2.97817 6.80777 4.22256C6.89603 4.20049 6.71952 4.24462 6.80777 4.22256L6.75923 1.99855Z" fill="#353535"/>
<path d="M34.713 5.04785C34.713 5.04785 34.2409 5.66122 33.7555 6.04071C33.2701 6.42462 34.4174 5.81125 34.4174 5.81125L35.0528 5.24642L34.713 5.04785Z" fill="#353535"/>
<path d="M8.75384 5.04785C8.75384 5.04785 9.226 5.66122 9.7114 6.04071C10.1924 6.42462 9.04949 5.81125 9.04949 5.81125L8.41406 5.24642L8.75384 5.04785Z" fill="#353535"/>
<path d="M34.3513 26.3345C34.3513 26.3345 33.0187 25.2313 30.9447 24.993C29.4135 24.8165 27.5822 24.8607 26.4261 26.8817C25.2699 28.9027 25.5877 30.9502 25.9054 31.6871C26.3687 31.9607 26.7085 31.4621 26.757 31.0164C26.7879 30.7031 26.6997 30.0235 27.5601 30.05C28.4206 30.0765 30.1151 30.4074 31.1653 28.7924C31.4786 28.4085 31.5228 26.9567 31.8449 26.5066C32.1714 26.0565 32.6348 25.8623 34.3513 26.3345Z" fill="black"/>
<path d="M26.7884 28.8897C27.0885 29.6266 28.4653 30.0987 29.5728 29.6531C30.6804 29.203 31.0952 27.9983 30.7952 27.2658C30.4951 26.5333 29.3566 26.2994 28.2534 26.7495C27.1459 27.1952 26.4884 28.1527 26.7884 28.8897Z" fill="white"/>
<path d="M29.6341 26.5333C29.6341 26.5333 30.0533 28.7352 29.0472 29.1192C28.0412 29.5031 26.7173 28.5102 26.7041 27.8395C26.9115 27.5438 27.8249 26.3215 29.6341 26.5333Z" fill="black"/>
<path d="M28.3549 15.5058C30.1024 12.7523 32.9309 9.59719 33.6767 8.83821C34.4224 8.07481 35.68 7.16138 36.3508 7.75268C37.0215 8.3484 37.1671 10.6474 36.2978 14.9233C35.6315 18.202 35.2343 18.78 35.7639 20.8937C33.9061 21.4144 26.6075 18.2593 28.3549 15.5058Z" fill="white"/>
<path d="M9.12012 26.3345C9.12012 26.3345 10.4528 25.2313 12.5267 24.993C14.0579 24.8165 15.8892 24.8607 17.0453 26.8817C18.2015 28.9027 17.8838 30.9502 17.566 31.6871C17.1027 31.9607 16.7629 31.4621 16.7144 31.0164C16.6835 30.7031 16.7718 30.0235 15.9113 30.05C15.0508 30.0765 13.3563 30.4074 12.3061 28.7924C11.9928 28.4085 11.9487 26.9567 11.6265 26.5066C11.3044 26.0565 10.8367 25.8623 9.12012 26.3345Z" fill="black"/>
<path d="M16.5811 28.7218C16.3031 29.4058 15.0234 29.8471 13.9952 29.4279C12.9671 29.0087 12.5788 27.8923 12.8568 27.2083C13.1348 26.5243 14.1938 26.3081 15.222 26.7273C16.2501 27.1465 16.8591 28.0379 16.5811 28.7218Z" fill="white"/>
<path d="M13.9251 26.5289C13.9251 26.5289 13.572 28.3955 14.4237 28.7176C15.2754 29.0441 16.3962 28.2013 16.4094 27.6365C16.2285 27.3849 15.4563 26.348 13.9251 26.5289Z" fill="black"/>
<path d="M15.3943 15.1264C13.4704 12.0949 10.6595 8.23817 9.83874 7.39976C9.01797 6.56134 7.91038 5.61702 7.17346 6.27451C6.43654 6.93201 6.27327 9.35017 6.94841 14.1027C7.62356 18.8596 8.056 19.4729 7.97216 20.8276C10.0241 21.4013 17.3227 18.1624 15.3943 15.1264Z" fill="white"/>
<path d="M28.2626 15.3118C28.2626 15.3118 32.4546 13.2687 33.3901 12.1125C31.6427 14.8087 30.1688 15.7133 29.2422 16.2473C32.4502 15.1353 33.3901 14.4027 33.3901 14.4027C33.3901 14.4027 32.5473 17.1342 31.1661 17.8005C29.7894 18.4668 32.3487 18.2021 32.9136 17.8005C32.0001 18.8154 31.7751 19.7245 29.6437 19.6009C27.8478 18.6566 27.3447 16.5561 28.2626 15.3118Z" fill="#353535"/>
<path d="M16.3346 15.3118C16.3346 15.3118 12.1425 13.2687 11.207 12.1125C12.9545 14.8087 14.4283 15.7133 15.355 16.2473C12.1469 15.1353 11.207 14.4027 11.207 14.4027C11.207 14.4027 12.0499 17.1342 13.431 17.8005C14.8122 18.4668 12.2484 18.2021 11.6836 17.8005C12.597 18.8154 12.8221 19.7245 14.9534 19.6009C16.7494 18.6566 17.2569 16.5561 16.3346 15.3118Z" fill="#353535"/>
<path d="M13.0867 33.4876C14.9797 32.5124 20.3014 35.0585 21.7312 38.6196C23.1609 35.0585 28.4826 32.5124 30.3757 33.4876C32.2731 34.4672 31.7789 38.849 28.7474 41.7967C27.8913 42.6307 26.8234 43.1029 25.782 43.3676C25.504 44.665 23.6507 45.9005 21.7621 45.927V45.9314C21.7532 45.9314 21.74 45.9314 21.7312 45.9314C21.7223 45.9314 21.7091 45.9314 21.7003 45.9314V45.927C19.8116 45.9005 17.9583 44.665 17.6803 43.3676C16.6345 43.1029 15.5666 42.6263 14.715 41.7967C11.6878 38.849 11.1936 34.4672 13.0867 33.4876Z" fill="white"/>
<path d="M17.513 22.544C18.0381 19.9714 17.9675 17.0414 17.4689 16.3618C18.1484 17.1385 18.0117 19.3051 19.1281 20.7613C20.3813 22.4028 20.3592 23.7531 20.3592 23.7531L21.2462 21.0525L21.736 22.9985L22.2258 21.0525L23.1127 23.7531C23.1127 23.7531 23.0907 22.4028 24.3439 20.7613C25.4559 19.3051 25.3235 17.1385 26.0031 16.3618C25.5044 17.0414 25.4338 19.9758 25.9589 22.544C26.5105 25.249 25.1029 25.8315 25.1029 25.8315C24.9175 25.3064 25.2044 24.8872 25.3279 23.8943C25.4471 22.9015 25.1955 22.1822 25.1029 21.507C24.9175 21.635 24.5204 22.3852 24.1939 23.4045C23.8673 24.4238 23.3157 24.6754 23.0113 24.4591C22.8039 24.3091 22.6627 23.5104 22.2876 22.747C22.1817 23.0868 21.9169 23.6207 21.7448 23.9561V23.9826C21.7448 23.9782 21.7404 23.9737 21.7404 23.9693C21.7404 23.9737 21.736 23.9782 21.736 23.9826V23.9561C21.5595 23.6207 21.2991 23.0868 21.1932 22.747C20.8226 23.5104 20.6769 24.3091 20.4695 24.4591C20.1695 24.6754 19.6135 24.4238 19.2869 23.4045C18.9604 22.3852 18.5632 21.6394 18.3779 21.507C18.2897 22.1822 18.0337 22.9015 18.1573 23.8943C18.2764 24.8872 18.5677 25.3064 18.3779 25.8315C18.3735 25.8315 16.9658 25.249 17.513 22.544Z" fill="black"/>
<path d="M21.5989 34.3569C21.6342 34.379 21.6828 34.3966 21.7313 34.4055C21.7799 34.3966 21.8284 34.379 21.8637 34.3569C22.5786 33.8539 23.3022 34.0348 24.198 34.3746C23.7303 34.5864 23.3552 34.7099 23.0287 34.9129C22.7418 35.0938 22.4594 35.3321 22.2785 35.6101C22.0623 35.9411 21.9564 36.3426 21.7357 36.881C21.5151 36.3426 21.4048 35.9411 21.193 35.6101C21.012 35.3321 20.7296 35.0938 20.4428 34.9129C20.1163 34.7055 19.7368 34.582 19.2734 34.3746C20.1648 34.0348 20.8841 33.8539 21.5989 34.3569Z" fill="#FF0000"/>
<path d="M17.3848 40.7157C17.3848 40.7157 20.5884 40.2435 20.9193 38.9991C21.2547 37.7548 21.1576 35.9544 21.7269 35.8882C22.2961 35.9544 22.2829 36.9031 22.5785 38.1563C22.8345 39.233 24.1009 39.6169 25.31 41.1349C23.7788 40.0361 22.83 39.6081 21.7313 39.6081C20.6325 39.6081 17.3848 40.7157 17.3848 40.7157Z" fill="#353535"/>
<path d="M34.0645 26.1272C34.0645 26.1272 38.2124 28.5984 42.2986 32.0491C42.4883 32.4992 42.7001 33.5229 42.8237 34.1672C42.4266 33.9686 42.2942 33.9024 41.8 33.8892C41.1204 33.876 40.3438 33.3244 39.7083 32.7419C36.9107 30.1825 33.3584 25.505 32.1185 26.2287C30.8873 25.6948 34.0645 26.1272 34.0645 26.1272Z" fill="black"/>
</svg>
