<svg width="1072" height="240" viewBox="0 0 1072 240" fill="none" xmlns="http://www.w3.org/2000/svg">
<path d="M126.377 169.687C126.077 169.987 126.077 170.331 125.733 170.331H94.3113H2.8786C2.57811 170.331 2.2347 170.03 2.2347 169.687C2.87859 148.31 2.87859 134.488 2.53518 127.877C2.53518 126.289 2.23469 121.91 1.89128 114.656L0.946932 98.0003V84.5215C1.24742 78.5548 1.24741 74.1334 1.24741 71.3432C0.946931 46.8324 0.946925 34.255 0.603516 33.9546V19.8319V11.3325C0.603516 8.79985 0.603514 7.2545 0.903997 6.91109C1.54789 6.2672 3.09322 5.32284 5.92635 4.37847C8.11558 3.43409 10.9487 2.79019 14.0823 2.18923C20.6929 0.600959 28.8489 0 38.5932 0C38.8936 0 38.8936 0.300473 38.8936 0.643882C38.8936 4.72186 38.5931 18.2436 37.9492 41.1662C37.6488 56.2332 37.6488 68.5101 37.9492 77.6104C38.8936 94.9097 39.1941 106.199 39.1941 110.921C39.1941 113.754 39.1941 117.832 38.8936 122.855V127.877C38.8936 130.71 38.8936 131.955 38.8936 131.955C38.5931 131.654 39.1941 131.654 40.1384 131.654H42.0272H47.0495C51.7714 131.955 56.7938 131.955 62.4601 131.654H128.48C128.781 131.654 129.124 131.955 129.124 132.298C129.21 150.199 128.266 162.776 126.377 169.687Z" fill="white"/>
<path d="M267.816 99.6326C267.816 103.11 267.515 106.544 267.172 110.021C263.394 137.365 245.494 161.875 220.339 170.375C208.105 174.753 194.884 174.753 181.062 170.375C167.24 166.297 156.851 158.441 149.94 147.109C135.174 121.01 138.951 91.4767 155.607 67.2664C163.763 55.6334 174.795 47.134 188.273 41.8112C203.341 35.8444 217.506 35.2005 230.384 39.2785C254.594 47.134 267.172 76.0233 267.816 99.6326ZM215.016 68.5112C202.439 65.0342 191.149 74.1774 183.895 86.7548C176.683 99.6326 175.095 112.854 178.873 126.032C180.761 132.943 183.895 137.665 187.973 139.854C193.296 143.331 199.906 142.988 207.461 139.554C218.794 134.231 226.306 123.199 230.384 106.544C233.861 90.1889 229.783 72.5892 215.016 68.5112Z" fill="white"/>
<path d="M400.768 54.0448C398.88 59.4105 394.802 64.7334 388.835 70.3996C384.113 75.1215 379.091 78.5556 374.068 81.3887C373.768 81.6892 373.768 81.6892 373.768 81.3887C366.213 72.5888 350.845 70.3996 340.457 75.7224C333.246 79.1995 328.223 84.8228 325.39 93.3222C324.446 96.7563 323.201 103.066 322.256 112.167C321.312 120.666 321.012 130.067 321.012 140.455C321.312 152.088 321.956 161.832 323.201 169.688C323.201 169.988 323.201 170.332 322.9 170.332C320.067 170.031 306.245 170.031 281.434 170.332C281.133 170.332 280.79 170.031 280.79 169.688C280.79 169.344 280.489 160.587 279.845 143.932C278.901 123.499 279.545 102.766 281.09 82.0326C281.734 75.422 282.335 68.5109 282.679 61.2993C283.322 51.2546 283.623 45.5883 283.623 44.6439C283.623 44.3435 283.923 44 284.267 44C291.822 41.1669 296.844 39.2782 299.677 38.6343C305.043 37.3894 311.954 36.7456 319.81 36.7456C320.11 36.7456 320.11 36.7456 320.11 37.046C320.411 43.6567 320.411 48.9795 320.411 52.757V58.7237C323.888 52.757 328.266 48.0351 333.289 44.601C341.144 39.2782 352.133 36.4451 365.655 36.7456C379.177 36.7456 392.698 43.3562 400.554 53.4009C400.768 53.7443 400.768 53.7443 400.768 54.0448Z" fill="white"/>
<path d="M590.585 170.331H570.152H549.719C549.419 170.331 549.419 170.331 549.419 170.03L544.396 152.731L539.675 135.432C538.43 131.998 536.842 127.276 534.652 121.91C519.242 122.855 499.453 123.498 475.586 124.443C472.109 133.543 468.675 141.742 465.842 149.598C464.597 153.676 459.231 165.008 457.686 170.03C457.385 170.331 457.385 170.331 457.042 170.331H412.742C412.098 170.331 412.098 170.03 412.442 169.386C413.686 166.553 417.807 157.453 419.997 153.675C422.83 148.954 425.663 142.987 429.097 136.376L439.786 113.454C444.507 103.066 448.285 95.5535 450.775 90.8317C456.097 80.4435 465.842 61.599 470.907 50.6099C473.096 45.5875 478.762 33.9546 481.295 29.2327C483.184 25.1547 485.073 21.0767 486.961 17.5997C487.906 15.0671 489.151 12.8778 490.095 10.6886C491.34 8.49936 492.284 7.21157 492.585 6.91109C493.229 6.2672 495.117 5.32284 498.551 4.37847C501.385 3.43409 504.518 2.79019 507.995 1.88874C515.207 0.643886 523.406 0 531.862 0C532.163 0 532.163 -1.31128e-06 532.506 0.300481C534.094 5.62332 539.417 20.4328 548.861 43.9993C552.295 52.7991 556.416 65.3765 561.739 81.3879C567.062 97.3993 571.182 108.431 573.372 114.999L582.815 140.755C586.593 152.388 591.315 161.831 596.938 169.344C597.496 170.932 593.075 170.331 590.585 170.331ZM523.964 92.0765C520.83 82.9762 518.941 77.0095 517.997 74.7773L507.952 45.2441L500.397 62.5433C497.564 68.8105 495.375 74.1763 493.787 78.8982C492.198 82.3752 489.408 90.8316 488.464 94.3087L506.364 93.3643L523.964 92.0765Z" fill="white"/>
<path d="M804.615 145.476C804.615 157.752 804.314 165.908 803.971 169.686C803.67 169.986 803.67 170.33 803.327 170.33H769.072C768.771 170.33 768.771 170.029 768.771 169.686C768.471 166.853 768.471 157.752 768.471 141.698V116.286V107.185C768.771 101.863 768.771 99.0295 768.471 98.3856C768.17 89.2853 765.938 82.9751 762.504 79.541C755.293 74.1752 745.205 75.463 737.693 80.4854C732.327 84.2629 729.194 89.9292 728.249 97.1407C727.305 104.996 726.36 118.518 725.717 138.307C725.416 152.773 725.073 163.118 725.073 169.729C725.073 170.029 724.772 170.373 724.429 170.373H689.229C688.929 170.373 688.929 170.072 688.929 169.729C688.628 166.595 688.628 158.096 688.628 143.973V119.462V104.395C688.628 95.8959 687.984 89.6287 686.439 85.5507C683.906 78.94 678.884 75.8065 671.372 76.1069C662.272 76.7508 655.361 82.3741 651.24 93.4062C649.651 97.1837 648.707 102.506 648.106 109.761C647.806 115.427 647.162 122.639 646.861 131.138L645.917 144.66C645.917 151.271 645.616 161.959 645.616 169.815C645.616 170.115 645.316 170.459 644.972 170.459H611.662C611.361 170.459 611.018 170.158 611.361 169.815C611.662 162.26 612.005 156.593 611.662 152.859C611.662 151.614 611.662 145.647 611.361 135.259C611.361 132.126 611.361 126.459 611.662 118.604C611.962 110.748 611.962 104.481 611.662 100.06L609.472 66.1051C609.172 55.717 608.829 50.6947 608.829 50.3942C608.528 46.9172 608.185 45.3718 608.528 45.0284C608.528 44.3845 609.472 43.4402 611.061 42.5387C618.272 38.7612 629.304 36.8725 644.672 36.8725C644.972 36.8725 645.316 36.8725 645.316 37.1729C645.616 44.084 645.616 49.4498 645.616 53.5278C645.616 55.1161 645.616 57.3053 645.316 60.1384C648.449 54.4722 651.583 50.0937 655.06 46.9172C663.559 38.7612 675.493 35.2842 691.504 36.8725C702.837 38.1173 711.293 44.4275 717.26 56.0604C717.26 55.76 717.904 55.1161 717.904 55.1161C724.171 47.2606 732.37 41.9377 742.114 39.1046C754.692 35.6276 765.681 35.6276 774.781 38.8041C785.169 41.9377 792.381 49.1923 797.103 60.1813C801.824 71.1704 804.314 82.5029 804.658 94.4364C804.658 97.2695 804.658 101.648 804.357 107.658C804.057 113.324 804.057 117.702 804.357 120.535C804.615 126.931 804.615 135.431 804.615 145.476Z" fill="white"/>
<path d="M938.448 169.688C938.448 169.988 938.148 170.332 937.804 170.332H920.505H903.549C903.249 170.332 902.906 170.031 902.906 169.688C902.605 163.077 902.605 157.754 902.605 153.977C902.605 152.389 902.605 150.5 902.906 148.311C898.484 155.522 893.462 160.888 887.838 164.966C880.627 169.688 872.771 172.178 863.972 173.122C852.982 174.066 843.839 171.877 836.928 166.511C828.128 160.244 822.805 150.8 819.972 138.223C817.44 125.646 817.139 119.379 816.195 105.556C815.894 103.367 816.195 94.2238 816.495 78.2124C816.796 73.4905 816.796 69.1121 816.495 65.635C816.495 60.3122 816.796 47.3915 816.796 44.5583C816.796 44.2579 816.796 43.9144 817.096 43.9144C828.429 39.1926 840.019 36.7028 851.652 36.7028C851.952 36.7028 851.952 36.7028 851.952 37.0033C851.952 41.4247 851.952 48.9368 852.596 53.0148C852.596 57.7367 852.296 66.5365 852.296 71.5589C851.995 77.5256 851.995 88.2142 852.296 102.981C852.296 109.591 852.296 110.836 853.24 118.048C854.184 126.848 857.618 132.814 865.517 135.347C871.484 136.935 878.094 135.347 885.306 131.269C892.517 127.191 897.54 121.224 899.772 113.669C901.36 108.948 902.305 100.792 902.605 89.1586C902.905 82.5479 902.906 67.7814 902.906 44.5154C902.906 44.2149 902.905 43.8715 903.206 43.8715C914.538 39.1496 925.528 36.6599 936.517 36.6599C936.817 36.6599 937.16 36.6599 937.16 36.9604C937.16 48.8939 937.16 60.5269 936.86 71.8593C936.559 90.4034 936.56 108.304 937.504 125.603C938.148 136.077 938.448 150.843 938.448 169.688Z" fill="white"/>
<path d="M1071.4 54.0448C1069.51 59.4105 1065.43 64.7334 1059.47 70.3996C1054.74 75.1215 1049.72 78.5556 1044.7 81.3887C1044.4 81.6892 1044.4 81.6892 1044.4 81.3887C1036.84 72.5888 1021.48 70.3996 1011.09 75.7224C1003.88 79.1995 998.854 84.8228 996.021 93.3222C995.076 96.7563 993.832 103.066 992.887 112.167C991.943 120.666 991.642 130.067 991.642 140.455C991.943 152.088 992.587 161.832 993.832 169.688C993.832 169.988 993.832 170.332 993.531 170.332C990.698 170.031 976.876 170.031 952.065 170.332C951.764 170.332 951.421 170.031 951.421 169.688C951.421 169.344 951.12 160.587 950.476 143.932C949.532 123.499 950.176 102.766 951.721 82.0326C952.365 75.422 952.966 68.5109 953.309 61.2993C953.953 51.2546 954.254 45.5883 954.254 44.6439C954.254 44.3435 954.554 44 954.898 44C962.453 41.1669 967.475 39.2782 970.308 38.6343C975.674 37.3894 982.585 36.7456 990.44 36.7456C990.741 36.7456 990.741 36.7456 990.741 37.046C991.041 43.6567 991.042 48.9795 991.042 52.757V58.7237C994.519 52.757 998.897 48.0351 1003.92 44.601C1011.77 39.2782 1022.76 36.4451 1036.29 36.7456C1049.81 36.7456 1063.33 43.3562 1071.18 53.4009C1071.4 53.7443 1071.4 53.7443 1071.4 54.0448Z" fill="white"/>
<path d="M322.812 169.474C325.43 188.233 382.135 229.055 414.716 164.194C433.819 126.204 457.685 169.689 457.685 169.689C457.685 169.689 432.788 239.1 363.42 239.1C297.614 239.1 281.86 190.594 280.658 169.088" fill="white"/>
<path d="M369.391 199.95C397.65 199.95 420.559 177.753 420.559 150.371C420.559 122.989 397.65 100.791 369.391 100.791C341.131 100.791 318.223 122.989 318.223 150.371C318.223 177.753 341.131 199.95 369.391 199.95Z" fill="white"/>
<path d="M326.451 90.3174C326.451 90.3174 309.967 134.317 319.497 161.575C325.678 179.26 338.943 107.66 338.943 107.66L326.451 90.3174Z" fill="white"/>
<path d="M412.271 177.371C412.271 177.371 430.043 150.714 448.93 93.8372C435.452 112.725 414.074 152.775 414.074 152.775L412.271 177.371Z" fill="white"/>
<path d="M373.158 177.627L367.878 172.347C348.218 154.962 335.34 143.243 335.34 128.863C335.34 117.144 344.397 108.044 356.159 108.044C362.598 108.044 369.037 111.049 373.158 115.985C377.322 111.049 383.761 108.044 390.157 108.044C401.875 108.044 410.976 117.101 410.976 128.863C410.976 143.243 398.098 154.962 378.438 172.347L373.158 177.627Z" fill="white"/>
<path d="M492.71 6.43872C492.71 6.43872 445.362 104.482 443.259 110.148C441.156 115.814 438.623 87.3545 438.623 87.3545L492.71 6.43872Z" fill="white"/>
</svg>
