<svg width="57" height="57" viewBox="0 0 57 57" fill="none" xmlns="http://www.w3.org/2000/svg">
<g clip-path="url(#clip0)" filter="url(#filter0_i)">
<path d="M15.3742 49.5076C17.0831 51.2165 19.8571 51.2165 21.566 49.5076L42.7633 28.3103C43.3719 27.7017 43.8401 26.976 44.1444 26.2035C46.2747 26.8004 48.3464 27.1165 50.1724 27.1048C54.6904 27.0813 56.1886 25.1032 56.6802 23.9211C57.1718 22.7506 57.5229 20.2926 54.351 17.0621C54.3158 17.027 54.2807 16.9919 54.2456 16.9567C52.2792 14.9903 49.4233 13.1761 46.181 11.8301C45.5841 11.5843 44.9872 11.3619 44.4019 11.1512V11.1161C44.3668 8.51762 42.2717 6.42247 39.6732 6.38736L26.9736 6.21179C25.2881 6.18838 23.6728 6.84384 22.4907 8.03773L1.28167 29.235C-0.427223 30.9439 -0.427223 33.7179 1.28167 35.4268L15.3742 49.5076ZM31.714 13.7965C33.1303 12.3802 35.4244 12.3802 36.8407 13.7965C37.6834 14.6392 38.0228 15.798 37.859 16.8865C39.2518 17.8697 40.9139 18.7827 42.693 19.5201C43.3251 19.7776 43.9337 20.0117 44.519 20.2107L44.4487 15.1074C44.5541 15.1542 44.6477 15.1893 44.7531 15.2361C47.5271 16.3949 50.0202 17.9634 51.6238 19.5669C51.6472 19.5903 51.6706 19.6137 51.694 19.6371C53.2156 21.1939 53.3795 22.1888 53.2507 22.4931C52.8528 23.4412 48.5805 24.2839 42.0961 21.5801C40.1999 20.7842 38.4208 19.801 36.9811 18.7359C36.9343 18.7944 36.8758 18.8529 36.829 18.9114C35.4127 20.3277 33.1186 20.3277 31.7023 18.9114C30.2977 17.5069 30.2977 15.2127 31.714 13.7965Z" fill="#DF0F0F"/>
</g>
<defs>
<filter id="filter0_i" x="0" y="0" width="57" height="61" filterUnits="userSpaceOnUse" color-interpolation-filters="sRGB">
<feFlood flood-opacity="0" result="BackgroundImageFix"/>
<feBlend mode="normal" in="SourceGraphic" in2="BackgroundImageFix" result="shape"/>
<feColorMatrix in="SourceAlpha" type="matrix" values="0 0 0 0 0 0 0 0 0 0 0 0 0 0 0 0 0 0 127 0" result="hardAlpha"/>
<feOffset dy="4"/>
<feGaussianBlur stdDeviation="2"/>
<feComposite in2="hardAlpha" operator="arithmetic" k2="-1" k3="1"/>
<feColorMatrix type="matrix" values="0 0 0 0 0 0 0 0 0 0 0 0 0 0 0 0 0 0 0.25 0"/>
<feBlend mode="normal" in2="shape" result="effect1_innerShadow"/>
</filter>
<clipPath id="clip0">
<rect width="57" height="57" fill="white"/>
</clipPath>
</defs>
</svg>
