<svg width="67" height="67" viewBox="0 0 67 67" fill="none" xmlns="http://www.w3.org/2000/svg">
<g filter="url(#filter0_i)">
<path d="M47.201 32.9089C43.5197 29.2401 38.6321 27.2344 33.4314 27.2476C22.7664 27.2845 14.0896 36.0769 14.0896 46.8473V49.5905C14.0896 53.4702 16.0784 56.9733 19.4098 58.9615C22.741 60.9496 26.7686 61.0373 30.1831 59.1956C32.2599 58.0754 34.7398 58.0754 36.8166 59.1956C38.4524 60.078 40.2282 60.5174 42.0014 60.5173C43.9295 60.5171 45.8546 59.9972 47.5901 58.9615C50.9213 56.9733 52.9103 53.4701 52.9103 49.5905V46.6579C52.91 41.4606 50.8826 36.5778 47.201 32.9089Z" fill="#DF0F0F"/>
<path d="M12.7915 22.3822L11.741 21.6189C8.44147 19.2217 3.80695 19.9558 1.40999 23.2552H1.40986C-0.987226 26.5545 -0.253235 31.1891 3.04626 33.5863L4.0968 34.3496C5.40671 35.3013 6.92703 35.7595 8.43441 35.7595C10.7235 35.7595 12.9826 34.7027 14.428 32.7133C16.8249 29.4138 16.0909 24.7793 12.7915 22.3822Z" fill="#DF0F0F"/>
<path d="M65.5902 23.431C63.1931 20.1317 58.5583 19.3974 55.2591 21.7947L54.2085 22.5581C50.9092 24.9551 50.1751 29.5897 52.5723 32.8892C54.0179 34.8788 56.2765 35.9353 58.5658 35.9353C60.0729 35.9353 61.5936 35.4771 62.9034 34.5254L63.9539 33.7621C67.2533 31.3649 67.9873 26.7304 65.5902 23.431Z" fill="#DF0F0F"/>
<path d="M30.9636 14.8839L29.8957 11.5971C29.2854 9.71821 27.9796 8.1895 26.2192 7.29259C24.459 6.39555 22.4546 6.23786 20.5759 6.84845C18.697 7.45891 17.1681 8.7645 16.2711 10.5248C15.3741 12.2851 15.2164 14.2894 15.827 16.1683L16.8949 19.4551C17.9095 22.5773 20.8161 24.5665 23.9345 24.5665C24.69 24.5665 25.4585 24.4496 26.2149 24.2038H26.215C28.0938 23.5934 29.6226 22.2877 30.5196 20.5273C31.4164 18.767 31.5741 16.7628 30.9636 14.8839Z" fill="#DF0F0F"/>
<path d="M46.424 6.9154C42.5452 5.65509 38.3645 7.78548 37.1043 11.6642L36.0364 14.9508C35.4259 16.8297 35.5836 18.834 36.4804 20.5943C37.3773 22.3546 38.9061 23.6603 40.7849 24.2708C41.5416 24.5165 42.3095 24.6334 43.0653 24.6334C46.1835 24.6334 49.0904 22.6442 50.1049 19.522L51.1729 16.2352C52.4331 12.3565 50.3027 8.17571 46.424 6.9154Z" fill="#DF0F0F"/>
</g>
<defs>
<filter id="filter0_i" x="0" y="0" width="67" height="71" filterUnits="userSpaceOnUse" color-interpolation-filters="sRGB">
<feFlood flood-opacity="0" result="BackgroundImageFix"/>
<feBlend mode="normal" in="SourceGraphic" in2="BackgroundImageFix" result="shape"/>
<feColorMatrix in="SourceAlpha" type="matrix" values="0 0 0 0 0 0 0 0 0 0 0 0 0 0 0 0 0 0 127 0" result="hardAlpha"/>
<feOffset dy="4"/>
<feGaussianBlur stdDeviation="2"/>
<feComposite in2="hardAlpha" operator="arithmetic" k2="-1" k3="1"/>
<feColorMatrix type="matrix" values="0 0 0 0 0 0 0 0 0 0 0 0 0 0 0 0 0 0 0.25 0"/>
<feBlend mode="normal" in2="shape" result="effect1_innerShadow"/>
</filter>
</defs>
</svg>
